G04*
G04 #@! TF.GenerationSoftware,Altium Limited,Altium Designer,18.0.12 (696)*
G04*
G04 Layer_Color=65535*
%FSLAX24Y24*%
%MOIN*%
G70*
G01*
G75*
%ADD10C,0.0100*%
G36*
X37420Y30196D02*
X37472D01*
Y30188D01*
X37509D01*
Y30181D01*
X37531D01*
Y30173D01*
X37561D01*
Y30166D01*
X37583D01*
Y30159D01*
X37605D01*
Y30151D01*
X37627D01*
Y30144D01*
X37649D01*
Y30137D01*
X37664D01*
Y30129D01*
X37679D01*
Y30122D01*
X37694D01*
Y30114D01*
X37708D01*
Y30107D01*
X37723D01*
Y30100D01*
X37738D01*
Y30092D01*
X37753D01*
Y30085D01*
X37760D01*
Y30078D01*
X37775D01*
Y30070D01*
X37782D01*
Y30063D01*
X37797D01*
Y30055D01*
X37804D01*
Y30048D01*
X37819D01*
Y30041D01*
X37827D01*
Y30033D01*
X37841D01*
Y30026D01*
X37849D01*
Y30018D01*
X37856D01*
Y30011D01*
X37863D01*
Y30004D01*
X37878D01*
Y29996D01*
X37886D01*
Y29989D01*
X37893D01*
Y29982D01*
X37900D01*
Y29974D01*
X37908D01*
Y29967D01*
X37915D01*
Y29959D01*
X37922D01*
Y29952D01*
X37930D01*
Y29945D01*
X37937D01*
Y29937D01*
X37945D01*
Y29930D01*
X37952D01*
Y29922D01*
X37959D01*
Y29915D01*
X37967D01*
Y29908D01*
X37974D01*
Y29893D01*
X37982D01*
Y29886D01*
X37989D01*
Y29871D01*
X38004D01*
Y29856D01*
X38011D01*
Y29841D01*
X38018D01*
Y29834D01*
X38026D01*
Y29819D01*
X38033D01*
Y29812D01*
X38041D01*
Y29797D01*
X38048D01*
Y29790D01*
X38055D01*
Y29775D01*
X38063D01*
Y29767D01*
X38070D01*
Y29745D01*
X38078D01*
Y29731D01*
X38085D01*
Y29716D01*
X38092D01*
Y29701D01*
X38100D01*
Y29686D01*
X38107D01*
Y29664D01*
X38114D01*
Y29649D01*
X38122D01*
Y29620D01*
X38129D01*
Y29598D01*
X38137D01*
Y29568D01*
X38144D01*
Y29539D01*
X38151D01*
Y29516D01*
X38159D01*
Y29509D01*
X38151D01*
Y29502D01*
X38159D01*
Y29472D01*
X38166D01*
Y29243D01*
X38159D01*
Y29214D01*
X38151D01*
Y29206D01*
X38159D01*
Y29199D01*
X38151D01*
Y29177D01*
X38144D01*
Y29147D01*
X38137D01*
Y29118D01*
X38129D01*
Y29088D01*
X38122D01*
Y29066D01*
X38114D01*
Y29044D01*
X38107D01*
Y29029D01*
X38100D01*
Y29014D01*
X38092D01*
Y29000D01*
X38085D01*
Y28978D01*
X38078D01*
Y28970D01*
X38070D01*
Y28955D01*
X38063D01*
Y28933D01*
X38055D01*
Y28926D01*
X38048D01*
Y28911D01*
X38041D01*
Y28904D01*
X38033D01*
Y28889D01*
X38026D01*
Y28882D01*
X38018D01*
Y28867D01*
X38011D01*
Y28859D01*
X38004D01*
Y28852D01*
X37996D01*
Y28837D01*
X37989D01*
Y28830D01*
X37982D01*
Y28822D01*
X37974D01*
Y28808D01*
X37967D01*
Y28800D01*
X37959D01*
Y28793D01*
X37952D01*
Y28786D01*
X37945D01*
Y28778D01*
X37937D01*
Y28771D01*
X37930D01*
Y28763D01*
X37922D01*
Y28756D01*
X37915D01*
Y28749D01*
X37908D01*
Y28741D01*
X37900D01*
Y28734D01*
X37893D01*
Y28726D01*
X37886D01*
Y28719D01*
X37878D01*
Y28712D01*
X37871D01*
Y28704D01*
X37856D01*
Y28697D01*
X37849D01*
Y28690D01*
X37841D01*
Y28682D01*
X37827D01*
Y28675D01*
X37819D01*
Y28667D01*
X37812D01*
Y28660D01*
X37797D01*
Y28653D01*
X37790D01*
Y28645D01*
X37775D01*
Y28638D01*
X37767D01*
Y28631D01*
X37753D01*
Y28623D01*
X37738D01*
Y28616D01*
X37723D01*
Y28608D01*
X37708D01*
Y28601D01*
X37694D01*
Y28594D01*
X37679D01*
Y28586D01*
X37664D01*
Y28579D01*
X37649D01*
Y28571D01*
X37635D01*
Y28564D01*
X37612D01*
Y28557D01*
X37590D01*
Y28549D01*
X37568D01*
Y28542D01*
X37539D01*
Y28535D01*
X37509D01*
Y28483D01*
X37583D01*
Y28475D01*
X37612D01*
Y28468D01*
X37627D01*
Y28461D01*
X37642D01*
Y28453D01*
X37649D01*
Y28446D01*
X37657D01*
Y28439D01*
X37664D01*
Y28431D01*
X37671D01*
Y28416D01*
X37679D01*
Y28402D01*
X37686D01*
Y28394D01*
X37694D01*
Y28372D01*
X37701D01*
Y28343D01*
X37708D01*
Y28224D01*
X37701D01*
Y28202D01*
X37694D01*
Y28188D01*
X37686D01*
Y28173D01*
X37679D01*
Y28165D01*
X37671D01*
Y28158D01*
X37664D01*
Y28151D01*
X37657D01*
Y28128D01*
X37664D01*
Y28114D01*
X37671D01*
Y28106D01*
X37679D01*
Y28092D01*
X37686D01*
Y28077D01*
X37694D01*
Y28055D01*
X37701D01*
Y28040D01*
X37708D01*
Y28010D01*
X37716D01*
Y27988D01*
X37723D01*
Y27959D01*
X37731D01*
Y27937D01*
X37738D01*
Y27922D01*
X37745D01*
Y27900D01*
X37753D01*
Y27877D01*
X37760D01*
Y27870D01*
X37598D01*
Y27900D01*
X37590D01*
Y27907D01*
X37583D01*
Y27914D01*
X37590D01*
Y27922D01*
X37583D01*
Y27937D01*
X37576D01*
Y27959D01*
X37568D01*
Y27988D01*
X37561D01*
Y28010D01*
X37553D01*
Y28033D01*
X37546D01*
Y28047D01*
X37539D01*
Y28062D01*
X37531D01*
Y28069D01*
X37524D01*
Y27863D01*
X37516D01*
Y28047D01*
X37509D01*
Y28099D01*
X37480D01*
Y27870D01*
X37332D01*
Y28483D01*
X37480D01*
Y28490D01*
X37487D01*
Y28483D01*
X37494D01*
Y28490D01*
X37502D01*
Y28505D01*
X37487D01*
Y28520D01*
X37480D01*
Y28542D01*
X37472D01*
Y28667D01*
X37465D01*
Y28704D01*
X37450D01*
Y28601D01*
X37443D01*
Y28719D01*
X37435D01*
Y28734D01*
X37443D01*
Y28756D01*
X37428D01*
Y28741D01*
X37420D01*
Y28712D01*
X37413D01*
Y28845D01*
X37406D01*
Y28852D01*
X37420D01*
Y28859D01*
X37428D01*
Y28845D01*
X37435D01*
Y28837D01*
X37443D01*
Y28822D01*
X37450D01*
Y28808D01*
X37457D01*
Y28800D01*
X37465D01*
Y28793D01*
X37457D01*
Y28800D01*
X37443D01*
Y28786D01*
X37450D01*
Y28756D01*
X37480D01*
Y28667D01*
X37494D01*
Y28778D01*
X37487D01*
Y28793D01*
X37480D01*
Y28808D01*
X37472D01*
Y28822D01*
X37465D01*
Y28830D01*
X37457D01*
Y28845D01*
X37450D01*
Y28859D01*
X37443D01*
Y28874D01*
X37435D01*
Y28882D01*
X37428D01*
Y28904D01*
X37420D01*
Y28918D01*
X37413D01*
Y28926D01*
X37406D01*
Y28941D01*
X37398D01*
Y28955D01*
X37384D01*
Y28948D01*
X37347D01*
Y28941D01*
X37332D01*
Y28933D01*
X37324D01*
Y28926D01*
X37280D01*
Y28933D01*
X37288D01*
Y28948D01*
X37265D01*
Y28941D01*
X37251D01*
Y28926D01*
X37280D01*
Y28918D01*
X37265D01*
Y28911D01*
X37243D01*
Y28904D01*
X37221D01*
Y28896D01*
X37199D01*
Y28889D01*
X37192D01*
Y28896D01*
X37184D01*
Y28889D01*
X37177D01*
Y28882D01*
X37155D01*
Y28874D01*
X37133D01*
Y28867D01*
X37110D01*
Y28808D01*
X37103D01*
Y28793D01*
X37110D01*
Y28778D01*
X37118D01*
Y28771D01*
X37110D01*
Y28763D01*
X37103D01*
Y28741D01*
X37096D01*
Y28815D01*
X37103D01*
Y28845D01*
X37088D01*
Y28852D01*
X37073D01*
Y28859D01*
X37059D01*
Y28867D01*
X37044D01*
Y28874D01*
X37029D01*
Y28882D01*
X37022D01*
Y28889D01*
X37007D01*
Y28896D01*
X37000D01*
Y28904D01*
X36992D01*
Y28911D01*
X36978D01*
Y28918D01*
X36970D01*
Y28926D01*
X36963D01*
Y28933D01*
X36955D01*
Y28941D01*
X36948D01*
Y28948D01*
X36941D01*
Y28955D01*
X36933D01*
Y28963D01*
X36926D01*
Y28970D01*
X36918D01*
Y28978D01*
X36911D01*
Y28985D01*
X36904D01*
Y28992D01*
X36896D01*
Y29000D01*
X36889D01*
Y29007D01*
X36882D01*
Y29014D01*
X36874D01*
Y29029D01*
X36867D01*
Y29044D01*
X36859D01*
Y29051D01*
X36852D01*
Y29059D01*
X36845D01*
Y29066D01*
X36837D01*
Y29088D01*
X36830D01*
Y29096D01*
X36822D01*
Y29118D01*
X36815D01*
Y29133D01*
X36808D01*
Y29155D01*
X36800D01*
Y29162D01*
X36793D01*
Y29184D01*
X36786D01*
Y29214D01*
X36778D01*
Y29243D01*
X36771D01*
Y29295D01*
X36763D01*
Y29420D01*
X36771D01*
Y29465D01*
X36778D01*
Y29502D01*
X36786D01*
Y29524D01*
X36793D01*
Y29539D01*
X36800D01*
Y29546D01*
X36793D01*
Y29553D01*
X36800D01*
Y29568D01*
X36808D01*
Y29583D01*
X36815D01*
Y29598D01*
X36822D01*
Y29612D01*
X36830D01*
Y29635D01*
X36837D01*
Y29642D01*
X36845D01*
Y29657D01*
X36852D01*
Y29664D01*
X36859D01*
Y29679D01*
X36867D01*
Y29686D01*
X36874D01*
Y29694D01*
X36882D01*
Y29708D01*
X36889D01*
Y29716D01*
X36896D01*
Y29723D01*
X36904D01*
Y29738D01*
X36911D01*
Y29745D01*
X36918D01*
Y29753D01*
X36926D01*
Y29760D01*
X36933D01*
Y29767D01*
X36941D01*
Y29775D01*
X36948D01*
Y29782D01*
X36963D01*
Y29790D01*
X36970D01*
Y29797D01*
X36978D01*
Y29804D01*
X36992D01*
Y29812D01*
X37000D01*
Y29819D01*
X37014D01*
Y29827D01*
X37022D01*
Y29834D01*
X37037D01*
Y29841D01*
X37044D01*
Y29849D01*
X37059D01*
Y29856D01*
X37073D01*
Y29863D01*
X37088D01*
Y29871D01*
X37110D01*
Y29878D01*
X37125D01*
Y29886D01*
X37147D01*
Y29893D01*
X37169D01*
Y29900D01*
X37206D01*
Y29908D01*
X37236D01*
Y29915D01*
X37413D01*
Y29908D01*
X37443D01*
Y29900D01*
X37472D01*
Y29893D01*
X37494D01*
Y29886D01*
X37524D01*
Y29878D01*
X37539D01*
Y29871D01*
X37553D01*
Y29863D01*
X37568D01*
Y29856D01*
X37583D01*
Y29849D01*
X37598D01*
Y29841D01*
X37612D01*
Y29834D01*
X37627D01*
Y29827D01*
X37635D01*
Y29819D01*
X37649D01*
Y29812D01*
X37657D01*
Y29804D01*
X37664D01*
Y29797D01*
X37671D01*
Y29790D01*
X37686D01*
Y29782D01*
X37694D01*
Y29775D01*
X37701D01*
Y29767D01*
X37708D01*
Y29760D01*
X37716D01*
Y29753D01*
X37723D01*
Y29745D01*
X37731D01*
Y29738D01*
X37738D01*
Y29731D01*
X37745D01*
Y29723D01*
X37753D01*
Y29708D01*
X37760D01*
Y29701D01*
X37767D01*
Y29694D01*
X37775D01*
Y29686D01*
X37782D01*
Y29671D01*
X37790D01*
Y29657D01*
X37797D01*
Y29649D01*
X37804D01*
Y29635D01*
X37812D01*
Y29620D01*
X37819D01*
Y29612D01*
X37827D01*
Y29598D01*
X37834D01*
Y29576D01*
X37841D01*
Y29553D01*
X37849D01*
Y29531D01*
X37856D01*
Y29509D01*
X37863D01*
Y29472D01*
X37871D01*
Y29457D01*
X37878D01*
Y29450D01*
X37871D01*
Y29435D01*
X37878D01*
Y29398D01*
X37886D01*
Y29317D01*
X37878D01*
Y29280D01*
X37871D01*
Y29265D01*
X37878D01*
Y29258D01*
X37871D01*
Y29236D01*
X37863D01*
Y29206D01*
X37856D01*
Y29177D01*
X37849D01*
Y29155D01*
X37841D01*
Y29140D01*
X37834D01*
Y29125D01*
X37827D01*
Y29110D01*
X37819D01*
Y29096D01*
X37812D01*
Y29081D01*
X37804D01*
Y29066D01*
X37797D01*
Y29051D01*
X37790D01*
Y29037D01*
X37782D01*
Y29029D01*
X37775D01*
Y29022D01*
X37767D01*
Y29014D01*
X37760D01*
Y29000D01*
X37745D01*
Y28985D01*
X37738D01*
Y28978D01*
X37731D01*
Y28970D01*
X37723D01*
Y28963D01*
X37716D01*
Y28955D01*
X37708D01*
Y28948D01*
X37701D01*
Y28941D01*
X37694D01*
Y28933D01*
X37686D01*
Y28926D01*
X37679D01*
Y28918D01*
X37671D01*
Y28911D01*
X37657D01*
Y28904D01*
X37649D01*
Y28896D01*
X37635D01*
Y28889D01*
X37627D01*
Y28882D01*
X37612D01*
Y28874D01*
X37598D01*
Y28867D01*
X37583D01*
Y28859D01*
X37568D01*
Y28852D01*
X37553D01*
Y28845D01*
X37539D01*
Y28837D01*
X37524D01*
Y28830D01*
X37516D01*
Y28815D01*
X37524D01*
Y28793D01*
X37531D01*
Y28786D01*
X37516D01*
Y28778D01*
X37509D01*
Y28771D01*
X37502D01*
Y28623D01*
X37509D01*
Y28564D01*
X37502D01*
Y28557D01*
X37539D01*
Y28564D01*
X37561D01*
Y28571D01*
X37583D01*
Y28579D01*
X37605D01*
Y28586D01*
X37627D01*
Y28594D01*
X37642D01*
Y28601D01*
X37657D01*
Y28608D01*
X37671D01*
Y28616D01*
X37686D01*
Y28623D01*
X37701D01*
Y28631D01*
X37716D01*
Y28638D01*
X37731D01*
Y28645D01*
X37745D01*
Y28653D01*
X37753D01*
Y28660D01*
X37767D01*
Y28667D01*
X37782D01*
Y28675D01*
X37790D01*
Y28682D01*
X37804D01*
Y28690D01*
X37812D01*
Y28697D01*
X37819D01*
Y28704D01*
X37834D01*
Y28712D01*
X37841D01*
Y28719D01*
X37849D01*
Y28726D01*
X37856D01*
Y28734D01*
X37863D01*
Y28741D01*
X37871D01*
Y28749D01*
X37886D01*
Y28756D01*
X37893D01*
Y28763D01*
X37900D01*
Y28771D01*
X37908D01*
Y28778D01*
X37915D01*
Y28786D01*
X37922D01*
Y28793D01*
X37930D01*
Y28808D01*
X37937D01*
Y28815D01*
X37945D01*
Y28822D01*
X37952D01*
Y28830D01*
X37959D01*
Y28837D01*
X37967D01*
Y28845D01*
X37974D01*
Y28859D01*
X37982D01*
Y28867D01*
X37989D01*
Y28874D01*
X37996D01*
Y28889D01*
X38004D01*
Y28896D01*
X38011D01*
Y28911D01*
X38018D01*
Y28926D01*
X38026D01*
Y28933D01*
X38033D01*
Y28941D01*
X38041D01*
Y28963D01*
X38048D01*
Y28978D01*
X38055D01*
Y28992D01*
X38063D01*
Y29000D01*
X38070D01*
Y29014D01*
X38078D01*
Y29029D01*
X38085D01*
Y29059D01*
X38092D01*
Y29073D01*
X38100D01*
Y29088D01*
X38107D01*
Y29110D01*
X38114D01*
Y29140D01*
X38122D01*
Y29169D01*
X38129D01*
Y29214D01*
X38137D01*
Y29273D01*
X38144D01*
Y29443D01*
X38137D01*
Y29502D01*
X38129D01*
Y29539D01*
X38122D01*
Y29568D01*
X38114D01*
Y29605D01*
X38107D01*
Y29627D01*
X38100D01*
Y29642D01*
X38092D01*
Y29657D01*
X38085D01*
Y29679D01*
X38078D01*
Y29701D01*
X38070D01*
Y29716D01*
X38063D01*
Y29723D01*
X38055D01*
Y29738D01*
X38048D01*
Y29753D01*
X38041D01*
Y29767D01*
X38033D01*
Y29782D01*
X38026D01*
Y29797D01*
X38018D01*
Y29804D01*
X38011D01*
Y29819D01*
X38004D01*
Y29827D01*
X37996D01*
Y29834D01*
X37989D01*
Y29849D01*
X37982D01*
Y29863D01*
X37967D01*
Y29871D01*
X37959D01*
Y29886D01*
X37952D01*
Y29893D01*
X37945D01*
Y29900D01*
X37937D01*
Y29908D01*
X37930D01*
Y29915D01*
X37922D01*
Y29922D01*
X37915D01*
Y29930D01*
X37908D01*
Y29937D01*
X37900D01*
Y29945D01*
X37893D01*
Y29952D01*
X37886D01*
Y29959D01*
X37878D01*
Y29967D01*
X37871D01*
Y29974D01*
X37863D01*
Y29982D01*
X37856D01*
Y29989D01*
X37849D01*
Y29996D01*
X37841D01*
Y30004D01*
X37827D01*
Y30011D01*
X37819D01*
Y30018D01*
X37812D01*
Y30026D01*
X37797D01*
Y30033D01*
X37790D01*
Y30041D01*
X37782D01*
Y30048D01*
X37767D01*
Y30055D01*
X37760D01*
Y30063D01*
X37745D01*
Y30070D01*
X37731D01*
Y30078D01*
X37716D01*
Y30085D01*
X37701D01*
Y30092D01*
X37686D01*
Y30100D01*
X37671D01*
Y30107D01*
X37657D01*
Y30114D01*
X37642D01*
Y30122D01*
X37627D01*
Y30129D01*
X37605D01*
Y30137D01*
X37583D01*
Y30144D01*
X37553D01*
Y30151D01*
X37531D01*
Y30159D01*
X37494D01*
Y30166D01*
X37472D01*
Y30173D01*
X37420D01*
Y30181D01*
X37229D01*
Y30173D01*
X37177D01*
Y30166D01*
X37147D01*
Y30159D01*
X37110D01*
Y30151D01*
X37088D01*
Y30144D01*
X37066D01*
Y30137D01*
X37044D01*
Y30129D01*
X37022D01*
Y30122D01*
X37007D01*
Y30114D01*
X36992D01*
Y30107D01*
X36970D01*
Y30100D01*
X36955D01*
Y30092D01*
X36941D01*
Y30085D01*
X36926D01*
Y30078D01*
X36918D01*
Y30070D01*
X36904D01*
Y30063D01*
X36889D01*
Y30055D01*
X36882D01*
Y30048D01*
X36867D01*
Y30041D01*
X36859D01*
Y30033D01*
X36845D01*
Y30026D01*
X36837D01*
Y30018D01*
X36822D01*
Y30011D01*
X36815D01*
Y30004D01*
X36808D01*
Y29996D01*
X36800D01*
Y29989D01*
X36786D01*
Y29982D01*
X36778D01*
Y29974D01*
X36771D01*
Y29967D01*
X36763D01*
Y29959D01*
X36756D01*
Y29952D01*
X36749D01*
Y29945D01*
X36741D01*
Y29937D01*
X36734D01*
Y29930D01*
X36727D01*
Y29922D01*
X36719D01*
Y29915D01*
X36712D01*
Y29908D01*
X36704D01*
Y29900D01*
X36697D01*
Y29893D01*
X36690D01*
Y29878D01*
X36682D01*
Y29871D01*
X36675D01*
Y29856D01*
X36660D01*
Y29841D01*
X36653D01*
Y29834D01*
X36645D01*
Y29827D01*
X36638D01*
Y29812D01*
X36631D01*
Y29797D01*
X36623D01*
Y29782D01*
X36616D01*
Y29775D01*
X36608D01*
Y29760D01*
X36601D01*
Y29753D01*
X36594D01*
Y29738D01*
X36586D01*
Y29723D01*
X36579D01*
Y29701D01*
X36571D01*
Y29686D01*
X36564D01*
Y29679D01*
X36557D01*
Y29657D01*
X36549D01*
Y29635D01*
X36542D01*
Y29605D01*
X36535D01*
Y29583D01*
X36527D01*
Y29561D01*
X36520D01*
Y29531D01*
X36512D01*
Y29487D01*
X36505D01*
Y29413D01*
X36498D01*
Y29302D01*
X36505D01*
Y29229D01*
X36512D01*
Y29184D01*
X36520D01*
Y29147D01*
X36527D01*
Y29133D01*
X36535D01*
Y29103D01*
X36542D01*
Y29081D01*
X36549D01*
Y29059D01*
X36557D01*
Y29044D01*
X36564D01*
Y29029D01*
X36571D01*
Y29014D01*
X36579D01*
Y29000D01*
X36586D01*
Y28978D01*
X36594D01*
Y28963D01*
X36601D01*
Y28948D01*
X36608D01*
Y28941D01*
X36616D01*
Y28926D01*
X36623D01*
Y28918D01*
X36631D01*
Y28904D01*
X36638D01*
Y28896D01*
X36645D01*
Y28882D01*
X36653D01*
Y28874D01*
X36660D01*
Y28867D01*
X36667D01*
Y28852D01*
X36675D01*
Y28845D01*
X36682D01*
Y28830D01*
X36697D01*
Y28815D01*
X36704D01*
Y28808D01*
X36712D01*
Y28800D01*
X36719D01*
Y28793D01*
X36727D01*
Y28786D01*
X36734D01*
Y28778D01*
X36741D01*
Y28771D01*
X36749D01*
Y28763D01*
X36756D01*
Y28756D01*
X36763D01*
Y28749D01*
X36771D01*
Y28741D01*
X36778D01*
Y28734D01*
X36793D01*
Y28726D01*
X36800D01*
Y28719D01*
X36808D01*
Y28712D01*
X36815D01*
Y28704D01*
X36822D01*
Y28697D01*
X36837D01*
Y28690D01*
X36845D01*
Y28682D01*
X36859D01*
Y28675D01*
X36867D01*
Y28667D01*
X36874D01*
Y28660D01*
X36889D01*
Y28653D01*
X36896D01*
Y28645D01*
X36911D01*
Y28638D01*
X36926D01*
Y28631D01*
X36941D01*
Y28623D01*
X36955D01*
Y28616D01*
X36970D01*
Y28608D01*
X36985D01*
Y28601D01*
X37000D01*
Y28594D01*
X37022D01*
Y28586D01*
X37044D01*
Y28579D01*
X37059D01*
Y28571D01*
X37073D01*
Y28601D01*
X37081D01*
Y28675D01*
X37088D01*
Y28741D01*
X37096D01*
Y28690D01*
X37110D01*
Y28682D01*
X37103D01*
Y28667D01*
X37125D01*
Y28675D01*
X37133D01*
Y28734D01*
X37147D01*
Y28749D01*
X37140D01*
Y28778D01*
X37147D01*
Y28793D01*
X37155D01*
Y28800D01*
X37162D01*
Y28822D01*
X37169D01*
Y28830D01*
X37177D01*
Y28845D01*
X37199D01*
Y28830D01*
X37206D01*
Y28808D01*
X37221D01*
Y28830D01*
X37229D01*
Y28845D01*
X37236D01*
Y28852D01*
X37243D01*
Y28859D01*
X37251D01*
Y28867D01*
X37273D01*
Y28859D01*
X37280D01*
Y28852D01*
X37273D01*
Y28830D01*
X37288D01*
Y28845D01*
X37295D01*
Y28867D01*
X37302D01*
Y28874D01*
X37310D01*
Y28882D01*
X37332D01*
Y28889D01*
X37339D01*
Y28837D01*
X37354D01*
Y28830D01*
X37339D01*
Y28793D01*
X37347D01*
Y28786D01*
X37339D01*
Y28771D01*
X37332D01*
Y28741D01*
X37339D01*
Y28734D01*
X37332D01*
Y28667D01*
X37339D01*
Y28660D01*
X37332D01*
Y28667D01*
X37317D01*
Y28660D01*
X37302D01*
Y28653D01*
X37288D01*
Y28638D01*
X37302D01*
Y28645D01*
X37332D01*
Y28616D01*
X37339D01*
Y28608D01*
X37324D01*
Y28601D01*
X37295D01*
Y28594D01*
X37273D01*
Y28601D01*
X37280D01*
Y28667D01*
X37288D01*
Y28808D01*
X37273D01*
Y28771D01*
X37265D01*
Y28712D01*
X37273D01*
Y28704D01*
X37265D01*
Y28660D01*
X37258D01*
Y28638D01*
X37265D01*
Y28631D01*
X37258D01*
Y28638D01*
X37229D01*
Y28631D01*
X37214D01*
Y28638D01*
X37221D01*
Y28660D01*
X37214D01*
Y28667D01*
X37221D01*
Y28793D01*
X37206D01*
Y28771D01*
X37199D01*
Y28660D01*
X37192D01*
Y28631D01*
X37184D01*
Y28616D01*
X37169D01*
Y28608D01*
X37155D01*
Y28594D01*
X37177D01*
Y28601D01*
X37184D01*
Y28579D01*
X37206D01*
Y28586D01*
X37214D01*
Y28616D01*
X37243D01*
Y28623D01*
X37258D01*
Y28586D01*
X37236D01*
Y28579D01*
X37214D01*
Y28571D01*
X37199D01*
Y28564D01*
X37177D01*
Y28586D01*
X37162D01*
Y28557D01*
X37147D01*
Y28549D01*
X37140D01*
Y28542D01*
X37125D01*
Y28549D01*
X37118D01*
Y28557D01*
X37125D01*
Y28564D01*
X37133D01*
Y28608D01*
X37125D01*
Y28616D01*
X37133D01*
Y28608D01*
X37140D01*
Y28616D01*
X37147D01*
Y28653D01*
X37133D01*
Y28638D01*
X37125D01*
Y28631D01*
X37118D01*
Y28638D01*
X37110D01*
Y28631D01*
X37096D01*
Y28601D01*
X37088D01*
Y28594D01*
X37081D01*
Y28564D01*
X37073D01*
Y28483D01*
X37066D01*
Y28409D01*
X37059D01*
Y28350D01*
X37051D01*
Y28261D01*
X37059D01*
Y28232D01*
X37066D01*
Y28202D01*
X37081D01*
Y28210D01*
X37088D01*
Y28239D01*
X37096D01*
Y28276D01*
X37103D01*
Y28291D01*
X37096D01*
Y28298D01*
X37110D01*
Y28328D01*
X37118D01*
Y28357D01*
X37125D01*
Y28372D01*
X37133D01*
Y28402D01*
X37140D01*
Y28431D01*
X37147D01*
Y28461D01*
X37155D01*
Y28483D01*
X37162D01*
Y28490D01*
X37169D01*
Y28483D01*
X37310D01*
Y28475D01*
X37302D01*
Y28446D01*
X37295D01*
Y28416D01*
X37288D01*
Y28402D01*
X37280D01*
Y28394D01*
X37295D01*
Y28387D01*
X37280D01*
Y28365D01*
X37273D01*
Y28343D01*
X37265D01*
Y28328D01*
X37258D01*
Y28306D01*
X37251D01*
Y28276D01*
X37243D01*
Y28247D01*
X37236D01*
Y28224D01*
X37229D01*
Y28195D01*
X37221D01*
Y28180D01*
X37214D01*
Y28151D01*
X37206D01*
Y28128D01*
X37199D01*
Y28099D01*
X37192D01*
Y28077D01*
X37184D01*
Y28047D01*
X37177D01*
Y28033D01*
X37169D01*
Y28003D01*
X37162D01*
Y27981D01*
X37155D01*
Y27951D01*
X37147D01*
Y27922D01*
X37140D01*
Y27900D01*
X37133D01*
Y27885D01*
X37125D01*
Y27863D01*
X37029D01*
Y27885D01*
X37022D01*
Y27907D01*
X37007D01*
Y27892D01*
X37000D01*
Y27988D01*
X36992D01*
Y28018D01*
X36985D01*
Y28033D01*
X36978D01*
Y28055D01*
X36970D01*
Y28084D01*
X36963D01*
Y28106D01*
X36955D01*
Y28136D01*
X36948D01*
Y28158D01*
X36941D01*
Y28165D01*
X36926D01*
Y28143D01*
X36918D01*
Y28121D01*
X36911D01*
Y28092D01*
X36904D01*
Y28069D01*
X36896D01*
Y28055D01*
X36889D01*
Y28033D01*
X36882D01*
Y28003D01*
X36874D01*
Y27973D01*
X36867D01*
Y27951D01*
X36859D01*
Y27929D01*
X36852D01*
Y27914D01*
X36845D01*
Y27885D01*
X36837D01*
Y27863D01*
X36741D01*
Y27877D01*
X36734D01*
Y27907D01*
X36727D01*
Y27937D01*
X36719D01*
Y27966D01*
X36712D01*
Y27996D01*
X36704D01*
Y28003D01*
X36697D01*
Y28033D01*
X36690D01*
Y28062D01*
X36682D01*
Y28092D01*
X36675D01*
Y28114D01*
X36667D01*
Y28143D01*
X36660D01*
Y28158D01*
X36653D01*
Y28180D01*
X36645D01*
Y28210D01*
X36638D01*
Y28239D01*
X36631D01*
Y28269D01*
X36623D01*
Y28291D01*
X36616D01*
Y28306D01*
X36608D01*
Y28313D01*
X36616D01*
Y28320D01*
X36608D01*
Y28335D01*
X36601D01*
Y28357D01*
X36594D01*
Y28394D01*
X36586D01*
Y28416D01*
X36579D01*
Y28446D01*
X36571D01*
Y28468D01*
X36564D01*
Y28483D01*
X36719D01*
Y28461D01*
X36727D01*
Y28424D01*
X36734D01*
Y28394D01*
X36741D01*
Y28365D01*
X36749D01*
Y28335D01*
X36756D01*
Y28320D01*
X36763D01*
Y28313D01*
X36756D01*
Y28306D01*
X36763D01*
Y28291D01*
X36771D01*
Y28254D01*
X36778D01*
Y28232D01*
X36786D01*
Y28202D01*
X36800D01*
Y28217D01*
X36808D01*
Y28247D01*
X36815D01*
Y28269D01*
X36822D01*
Y28298D01*
X36830D01*
Y28328D01*
X36837D01*
Y28350D01*
X36845D01*
Y28365D01*
X36852D01*
Y28387D01*
X36859D01*
Y28416D01*
X36867D01*
Y28446D01*
X36874D01*
Y28468D01*
X36882D01*
Y28483D01*
X36992D01*
Y28461D01*
X37000D01*
Y28431D01*
X37007D01*
Y28409D01*
X37014D01*
Y28380D01*
X37022D01*
Y28357D01*
X37029D01*
Y28328D01*
X37044D01*
Y28357D01*
X37051D01*
Y28424D01*
X37059D01*
Y28498D01*
X37066D01*
Y28549D01*
X37051D01*
Y28557D01*
X37029D01*
Y28564D01*
X37014D01*
Y28571D01*
X36992D01*
Y28579D01*
X36978D01*
Y28586D01*
X36963D01*
Y28594D01*
X36948D01*
Y28601D01*
X36933D01*
Y28608D01*
X36918D01*
Y28616D01*
X36904D01*
Y28623D01*
X36889D01*
Y28631D01*
X36882D01*
Y28638D01*
X36867D01*
Y28645D01*
X36852D01*
Y28653D01*
X36845D01*
Y28660D01*
X36837D01*
Y28667D01*
X36822D01*
Y28675D01*
X36815D01*
Y28682D01*
X36808D01*
Y28690D01*
X36793D01*
Y28697D01*
X36786D01*
Y28704D01*
X36778D01*
Y28712D01*
X36771D01*
Y28719D01*
X36763D01*
Y28726D01*
X36756D01*
Y28734D01*
X36749D01*
Y28741D01*
X36734D01*
Y28749D01*
X36727D01*
Y28756D01*
X36719D01*
Y28763D01*
X36712D01*
Y28778D01*
X36704D01*
Y28786D01*
X36697D01*
Y28793D01*
X36690D01*
Y28800D01*
X36682D01*
Y28808D01*
X36675D01*
Y28815D01*
X36667D01*
Y28822D01*
X36660D01*
Y28837D01*
X36653D01*
Y28845D01*
X36645D01*
Y28859D01*
X36638D01*
Y28867D01*
X36631D01*
Y28874D01*
X36623D01*
Y28889D01*
X36616D01*
Y28896D01*
X36608D01*
Y28911D01*
X36601D01*
Y28918D01*
X36594D01*
Y28933D01*
X36586D01*
Y28948D01*
X36579D01*
Y28963D01*
X36571D01*
Y28978D01*
X36564D01*
Y28992D01*
X36557D01*
Y29007D01*
X36549D01*
Y29022D01*
X36542D01*
Y29044D01*
X36535D01*
Y29059D01*
X36527D01*
Y29088D01*
X36520D01*
Y29096D01*
X36512D01*
Y29125D01*
X36505D01*
Y29155D01*
X36498D01*
Y29184D01*
X36490D01*
Y29236D01*
X36483D01*
Y29310D01*
X36475D01*
Y29406D01*
X36483D01*
Y29480D01*
X36490D01*
Y29524D01*
X36498D01*
Y29561D01*
X36505D01*
Y29590D01*
X36512D01*
Y29620D01*
X36520D01*
Y29635D01*
X36527D01*
Y29649D01*
X36535D01*
Y29671D01*
X36542D01*
Y29694D01*
X36549D01*
Y29708D01*
X36557D01*
Y29731D01*
X36564D01*
Y29745D01*
X36571D01*
Y29760D01*
X36579D01*
Y29767D01*
X36586D01*
Y29782D01*
X36594D01*
Y29790D01*
X36601D01*
Y29812D01*
X36608D01*
Y29819D01*
X36616D01*
Y29827D01*
X36623D01*
Y29834D01*
X36631D01*
Y29849D01*
X36638D01*
Y29863D01*
X36645D01*
Y29871D01*
X36653D01*
Y29878D01*
X36660D01*
Y29893D01*
X36667D01*
Y29900D01*
X36675D01*
Y29908D01*
X36682D01*
Y29915D01*
X36690D01*
Y29922D01*
X36697D01*
Y29930D01*
X36704D01*
Y29937D01*
X36712D01*
Y29945D01*
X36719D01*
Y29952D01*
X36727D01*
Y29959D01*
X36734D01*
Y29967D01*
X36741D01*
Y29974D01*
X36749D01*
Y29982D01*
X36756D01*
Y29989D01*
X36763D01*
Y29996D01*
X36771D01*
Y30004D01*
X36778D01*
Y30011D01*
X36793D01*
Y30018D01*
X36800D01*
Y30026D01*
X36808D01*
Y30033D01*
X36815D01*
Y30041D01*
X36830D01*
Y30048D01*
X36837D01*
Y30055D01*
X36845D01*
Y30063D01*
X36859D01*
Y30070D01*
X36867D01*
Y30078D01*
X36882D01*
Y30085D01*
X36896D01*
Y30092D01*
X36911D01*
Y30100D01*
X36918D01*
Y30107D01*
X36933D01*
Y30114D01*
X36948D01*
Y30122D01*
X36963D01*
Y30129D01*
X36978D01*
Y30137D01*
X37000D01*
Y30144D01*
X37014D01*
Y30151D01*
X37037D01*
Y30159D01*
X37059D01*
Y30166D01*
X37081D01*
Y30173D01*
X37110D01*
Y30181D01*
X37133D01*
Y30188D01*
X37169D01*
Y30196D01*
X37229D01*
Y30203D01*
X37420D01*
Y30196D01*
D02*
G37*
G36*
X38041Y28483D02*
X38078D01*
Y28475D01*
X38100D01*
Y28468D01*
X38122D01*
Y28461D01*
X38144D01*
Y28453D01*
X38159D01*
Y28446D01*
X38166D01*
Y28439D01*
X38173D01*
Y28254D01*
X38166D01*
Y28261D01*
X38159D01*
Y28269D01*
X38144D01*
Y28276D01*
X38137D01*
Y28284D01*
X38129D01*
Y28291D01*
X38122D01*
Y28298D01*
X38107D01*
Y28306D01*
X38100D01*
Y28313D01*
X38085D01*
Y28320D01*
X38070D01*
Y28328D01*
X37996D01*
Y28320D01*
X37974D01*
Y28313D01*
X37959D01*
Y28306D01*
X37952D01*
Y28298D01*
X37945D01*
Y28291D01*
X37937D01*
Y28284D01*
X37930D01*
Y28269D01*
X37922D01*
Y28254D01*
X37915D01*
Y28239D01*
X37908D01*
Y28210D01*
X37900D01*
Y28143D01*
X37908D01*
Y28106D01*
X37915D01*
Y28099D01*
X37922D01*
Y28084D01*
X37930D01*
Y28069D01*
X37937D01*
Y28062D01*
X37945D01*
Y28055D01*
X37952D01*
Y28047D01*
X37959D01*
Y28040D01*
X37974D01*
Y28033D01*
X37982D01*
Y28025D01*
X38063D01*
Y28033D01*
X38078D01*
Y28040D01*
X38092D01*
Y28047D01*
X38107D01*
Y28055D01*
X38122D01*
Y28062D01*
X38129D01*
Y28069D01*
X38137D01*
Y28077D01*
X38144D01*
Y28084D01*
X38151D01*
Y28092D01*
X38166D01*
Y28099D01*
X38173D01*
Y27922D01*
X38166D01*
Y27914D01*
X38159D01*
Y27907D01*
X38144D01*
Y27900D01*
X38137D01*
Y27892D01*
X38122D01*
Y27885D01*
X38107D01*
Y27877D01*
X38085D01*
Y27870D01*
X38055D01*
Y27863D01*
X37952D01*
Y27870D01*
X37922D01*
Y27877D01*
X37900D01*
Y27885D01*
X37886D01*
Y27892D01*
X37878D01*
Y27900D01*
X37863D01*
Y27907D01*
X37849D01*
Y27922D01*
X37841D01*
Y27929D01*
X37834D01*
Y27937D01*
X37827D01*
Y27944D01*
X37819D01*
Y27951D01*
X37812D01*
Y27966D01*
X37804D01*
Y27973D01*
X37797D01*
Y27988D01*
X37790D01*
Y28010D01*
X37782D01*
Y28018D01*
X37775D01*
Y28040D01*
X37767D01*
Y28062D01*
X37760D01*
Y28106D01*
X37753D01*
Y28247D01*
X37760D01*
Y28291D01*
X37767D01*
Y28320D01*
X37775D01*
Y28335D01*
X37782D01*
Y28350D01*
X37790D01*
Y28365D01*
X37797D01*
Y28380D01*
X37804D01*
Y28387D01*
X37812D01*
Y28402D01*
X37819D01*
Y28409D01*
X37827D01*
Y28424D01*
X37834D01*
Y28431D01*
X37849D01*
Y28439D01*
X37856D01*
Y28446D01*
X37863D01*
Y28453D01*
X37871D01*
Y28461D01*
X37886D01*
Y28468D01*
X37900D01*
Y28475D01*
X37922D01*
Y28483D01*
X37959D01*
Y28490D01*
X38041D01*
Y28483D01*
D02*
G37*
G36*
X36416Y28475D02*
X36446D01*
Y28468D01*
X36468D01*
Y28461D01*
X36475D01*
Y28453D01*
X36490D01*
Y28446D01*
X36498D01*
Y28439D01*
X36505D01*
Y28431D01*
X36512D01*
Y28416D01*
X36520D01*
Y28402D01*
X36527D01*
Y28380D01*
X36535D01*
Y28284D01*
X36527D01*
Y28269D01*
X36520D01*
Y28247D01*
X36512D01*
Y28232D01*
X36505D01*
Y28217D01*
X36498D01*
Y28210D01*
X36490D01*
Y28195D01*
X36505D01*
Y28188D01*
X36512D01*
Y28180D01*
X36520D01*
Y28173D01*
X36527D01*
Y28165D01*
X36535D01*
Y28151D01*
X36542D01*
Y28143D01*
X36549D01*
Y28121D01*
X36557D01*
Y28092D01*
X36564D01*
Y28003D01*
X36557D01*
Y27973D01*
X36549D01*
Y27951D01*
X36542D01*
Y27937D01*
X36535D01*
Y27922D01*
X36527D01*
Y27914D01*
X36520D01*
Y27907D01*
X36512D01*
Y27900D01*
X36505D01*
Y27892D01*
X36490D01*
Y27885D01*
X36475D01*
Y27877D01*
X36453D01*
Y27870D01*
X36165D01*
Y28483D01*
X36416D01*
Y28475D01*
D02*
G37*
%LPC*%
G36*
X37413Y29900D02*
X37236D01*
Y29893D01*
X37206D01*
Y29886D01*
X37177D01*
Y29878D01*
X37155D01*
Y29871D01*
X37125D01*
Y29863D01*
X37110D01*
Y29856D01*
X37096D01*
Y29849D01*
X37081D01*
Y29841D01*
X37066D01*
Y29834D01*
X37051D01*
Y29827D01*
X37037D01*
Y29819D01*
X37029D01*
Y29812D01*
X37014D01*
Y29804D01*
X37007D01*
Y29797D01*
X36992D01*
Y29790D01*
X36985D01*
Y29782D01*
X36978D01*
Y29775D01*
X36970D01*
Y29767D01*
X36963D01*
Y29760D01*
X36955D01*
Y29753D01*
X36948D01*
Y29745D01*
X36941D01*
Y29738D01*
X36933D01*
Y29731D01*
X36926D01*
Y29723D01*
X36918D01*
Y29716D01*
X36911D01*
Y29708D01*
X36904D01*
Y29701D01*
X36896D01*
Y29694D01*
X36889D01*
Y29686D01*
Y29679D01*
X36874D01*
Y29671D01*
Y29664D01*
X36867D01*
Y29657D01*
Y29649D01*
X36859D01*
Y29642D01*
X36852D01*
Y29635D01*
Y29627D01*
X36845D01*
Y29620D01*
Y29612D01*
X36837D01*
Y29605D01*
Y29598D01*
X36830D01*
Y29590D01*
Y29583D01*
X36822D01*
Y29576D01*
Y29568D01*
X36815D01*
Y29561D01*
Y29553D01*
Y29546D01*
X36808D01*
Y29539D01*
Y29531D01*
X36800D01*
Y29524D01*
Y29516D01*
Y29509D01*
X36793D01*
Y29502D01*
Y29494D01*
Y29487D01*
Y29480D01*
Y29472D01*
X36786D01*
Y29465D01*
Y29457D01*
Y29450D01*
Y29443D01*
Y29435D01*
Y29428D01*
Y29420D01*
X36778D01*
Y29413D01*
Y29406D01*
Y29398D01*
Y29391D01*
Y29384D01*
Y29376D01*
Y29369D01*
Y29361D01*
Y29354D01*
Y29347D01*
Y29339D01*
Y29332D01*
Y29325D01*
Y29317D01*
Y29310D01*
Y29302D01*
Y29295D01*
Y29288D01*
X36786D01*
Y29280D01*
Y29273D01*
Y29265D01*
Y29258D01*
Y29251D01*
Y29243D01*
X36793D01*
Y29236D01*
Y29229D01*
Y29221D01*
Y29214D01*
Y29206D01*
X36800D01*
Y29199D01*
Y29192D01*
X36808D01*
Y29184D01*
Y29177D01*
Y29169D01*
X36815D01*
Y29162D01*
Y29155D01*
Y29147D01*
X36822D01*
Y29140D01*
Y29133D01*
Y29125D01*
X36830D01*
Y29118D01*
Y29110D01*
X36837D01*
Y29103D01*
X36845D01*
Y29096D01*
Y29088D01*
X36852D01*
Y29081D01*
Y29073D01*
X36859D01*
Y29066D01*
X36867D01*
Y29059D01*
Y29051D01*
X36874D01*
Y29044D01*
X36882D01*
Y29037D01*
Y29029D01*
X36889D01*
Y29022D01*
X36896D01*
Y29014D01*
X36904D01*
Y29007D01*
X36911D01*
Y29000D01*
Y28992D01*
X36918D01*
Y28985D01*
X36926D01*
Y28978D01*
X36933D01*
Y28970D01*
X36941D01*
Y28963D01*
X36948D01*
Y28955D01*
X36955D01*
Y28948D01*
X36970D01*
Y28941D01*
X36978D01*
Y28933D01*
X36985D01*
Y28926D01*
X36992D01*
Y28918D01*
X37007D01*
Y28911D01*
X37014D01*
Y28904D01*
X37022D01*
Y28896D01*
X37037D01*
Y28889D01*
X37051D01*
Y28882D01*
X37066D01*
Y28874D01*
X37081D01*
Y28867D01*
X37096D01*
Y28859D01*
X37103D01*
Y28867D01*
Y28874D01*
Y28882D01*
Y28889D01*
X37096D01*
Y28896D01*
Y28904D01*
X37088D01*
Y28911D01*
Y28918D01*
X37096D01*
Y28926D01*
X37103D01*
Y28933D01*
X37110D01*
Y28941D01*
X37118D01*
Y28948D01*
X37125D01*
Y28955D01*
X37133D01*
Y28963D01*
X37140D01*
Y28970D01*
X37155D01*
Y28963D01*
X37147D01*
Y28955D01*
X37140D01*
Y28948D01*
Y28941D01*
X37162D01*
Y28948D01*
Y28955D01*
Y28963D01*
Y28970D01*
Y28978D01*
Y28985D01*
X37140D01*
Y28978D01*
X37133D01*
Y28985D01*
X37125D01*
Y28992D01*
X37118D01*
Y29000D01*
X37133D01*
Y29007D01*
X37140D01*
Y29014D01*
X37155D01*
Y29022D01*
X37162D01*
Y29029D01*
X37184D01*
Y29037D01*
Y29044D01*
X37169D01*
Y29051D01*
X37155D01*
Y29059D01*
X37140D01*
Y29066D01*
X37133D01*
Y29073D01*
X37118D01*
Y29081D01*
X37110D01*
Y29088D01*
X37096D01*
Y29096D01*
X37088D01*
Y29103D01*
X37081D01*
Y29110D01*
X37073D01*
Y29118D01*
X37066D01*
Y29125D01*
X37059D01*
Y29133D01*
Y29140D01*
X37051D01*
Y29147D01*
X37044D01*
Y29155D01*
X37037D01*
Y29162D01*
Y29169D01*
X37029D01*
Y29177D01*
Y29184D01*
X37022D01*
Y29192D01*
X37014D01*
Y29199D01*
Y29206D01*
X37007D01*
Y29214D01*
Y29221D01*
Y29229D01*
X37000D01*
Y29236D01*
Y29243D01*
X36992D01*
Y29251D01*
Y29258D01*
Y29265D01*
Y29273D01*
X36985D01*
Y29280D01*
Y29288D01*
Y29295D01*
X36978D01*
Y29302D01*
X36985D01*
Y29310D01*
Y29317D01*
X36978D01*
Y29325D01*
Y29332D01*
Y29339D01*
Y29347D01*
Y29354D01*
Y29361D01*
Y29369D01*
Y29376D01*
Y29384D01*
Y29391D01*
Y29398D01*
X36985D01*
Y29391D01*
Y29384D01*
Y29376D01*
Y29369D01*
Y29361D01*
Y29354D01*
Y29347D01*
Y29339D01*
Y29332D01*
Y29325D01*
Y29317D01*
X36992D01*
Y29310D01*
Y29302D01*
Y29295D01*
Y29288D01*
X37000D01*
Y29280D01*
Y29273D01*
Y29265D01*
Y29258D01*
X37007D01*
Y29251D01*
Y29243D01*
Y29236D01*
X37014D01*
Y29229D01*
Y29221D01*
Y29214D01*
X37022D01*
Y29206D01*
Y29199D01*
X37029D01*
Y29192D01*
X37037D01*
Y29184D01*
Y29177D01*
X37044D01*
Y29169D01*
X37051D01*
Y29162D01*
Y29155D01*
X37059D01*
Y29147D01*
X37066D01*
Y29140D01*
X37073D01*
Y29133D01*
Y29125D01*
X37088D01*
Y29118D01*
X37096D01*
Y29110D01*
Y29103D01*
X37110D01*
Y29096D01*
X37118D01*
Y29088D01*
X37125D01*
Y29081D01*
X37140D01*
Y29073D01*
X37147D01*
Y29066D01*
X37162D01*
Y29059D01*
X37177D01*
Y29051D01*
X37192D01*
Y29044D01*
X37206D01*
Y29051D01*
X37221D01*
Y29044D01*
X37214D01*
Y29037D01*
X37199D01*
Y29029D01*
X37192D01*
Y29022D01*
X37169D01*
Y29014D01*
Y29007D01*
Y29000D01*
X37184D01*
Y29007D01*
X37206D01*
Y29014D01*
X37243D01*
Y29022D01*
X37265D01*
Y29029D01*
X37280D01*
Y29037D01*
Y29044D01*
X37324D01*
Y29051D01*
X37339D01*
Y29059D01*
X37354D01*
Y29066D01*
Y29073D01*
X37369D01*
Y29081D01*
Y29088D01*
Y29096D01*
X37361D01*
Y29103D01*
X37384D01*
Y29110D01*
Y29118D01*
Y29125D01*
Y29133D01*
Y29140D01*
Y29147D01*
X37376D01*
Y29155D01*
Y29162D01*
Y29169D01*
Y29177D01*
X37369D01*
Y29184D01*
Y29192D01*
Y29199D01*
Y29206D01*
X37361D01*
Y29214D01*
Y29221D01*
Y29229D01*
Y29236D01*
X37369D01*
Y29229D01*
Y29221D01*
Y29214D01*
Y29206D01*
X37376D01*
Y29199D01*
Y29192D01*
Y29184D01*
Y29177D01*
X37384D01*
Y29169D01*
Y29162D01*
Y29155D01*
Y29147D01*
X37391D01*
Y29140D01*
Y29133D01*
Y29125D01*
Y29118D01*
X37398D01*
Y29110D01*
Y29103D01*
Y29096D01*
Y29088D01*
X37406D01*
Y29081D01*
Y29073D01*
X37413D01*
Y29066D01*
X37406D01*
Y29059D01*
X37413D01*
Y29051D01*
Y29044D01*
X37406D01*
Y29051D01*
Y29059D01*
X37398D01*
Y29066D01*
X37376D01*
Y29059D01*
X37361D01*
Y29051D01*
X37354D01*
Y29044D01*
X37347D01*
Y29037D01*
Y29029D01*
X37354D01*
Y29022D01*
X37369D01*
Y29029D01*
X37376D01*
Y29037D01*
X37384D01*
Y29029D01*
Y29022D01*
Y29014D01*
Y29007D01*
X37406D01*
Y29000D01*
Y28992D01*
X37413D01*
Y28985D01*
Y28978D01*
X37420D01*
Y28970D01*
Y28963D01*
X37428D01*
Y28955D01*
Y28948D01*
X37435D01*
Y28941D01*
Y28933D01*
X37443D01*
Y28926D01*
X37450D01*
Y28918D01*
Y28911D01*
X37457D01*
Y28904D01*
Y28896D01*
X37465D01*
Y28889D01*
Y28882D01*
X37472D01*
Y28874D01*
Y28867D01*
X37480D01*
Y28859D01*
Y28852D01*
X37494D01*
Y28859D01*
Y28867D01*
X37487D01*
Y28874D01*
Y28882D01*
X37494D01*
Y28874D01*
Y28867D01*
X37502D01*
Y28859D01*
Y28852D01*
X37509D01*
Y28845D01*
X37524D01*
Y28852D01*
X37539D01*
Y28859D01*
X37553D01*
Y28867D01*
X37568D01*
Y28874D01*
X37583D01*
Y28882D01*
X37598D01*
Y28889D01*
X37605D01*
Y28896D01*
X37620D01*
Y28904D01*
X37627D01*
Y28911D01*
X37642D01*
Y28918D01*
X37649D01*
Y28926D01*
X37657D01*
Y28933D01*
X37671D01*
Y28941D01*
X37679D01*
Y28948D01*
X37686D01*
Y28955D01*
X37694D01*
Y28963D01*
X37701D01*
Y28970D01*
X37708D01*
Y28978D01*
X37716D01*
Y28985D01*
X37723D01*
Y28992D01*
X37731D01*
Y29000D01*
X37738D01*
Y29007D01*
X37745D01*
Y29014D01*
Y29022D01*
X37760D01*
Y29029D01*
Y29037D01*
X37767D01*
Y29044D01*
Y29051D01*
X37775D01*
Y29059D01*
X37782D01*
Y29066D01*
X37790D01*
Y29073D01*
Y29081D01*
X37797D01*
Y29088D01*
Y29096D01*
X37804D01*
Y29103D01*
Y29110D01*
X37812D01*
Y29118D01*
Y29125D01*
X37819D01*
Y29133D01*
Y29140D01*
Y29147D01*
X37827D01*
Y29155D01*
X37834D01*
Y29162D01*
Y29169D01*
Y29177D01*
X37841D01*
Y29184D01*
Y29192D01*
Y29199D01*
X37849D01*
Y29206D01*
Y29214D01*
Y29221D01*
Y29229D01*
Y29236D01*
X37856D01*
Y29243D01*
Y29251D01*
Y29258D01*
Y29265D01*
Y29273D01*
X37863D01*
Y29280D01*
Y29288D01*
Y29295D01*
Y29302D01*
Y29310D01*
X37871D01*
Y29317D01*
Y29325D01*
Y29332D01*
Y29339D01*
Y29347D01*
Y29354D01*
Y29361D01*
Y29369D01*
Y29376D01*
Y29384D01*
Y29391D01*
Y29398D01*
Y29406D01*
X37863D01*
Y29413D01*
Y29420D01*
Y29428D01*
Y29435D01*
Y29443D01*
X37856D01*
Y29450D01*
Y29457D01*
Y29465D01*
Y29472D01*
Y29480D01*
Y29487D01*
X37849D01*
Y29494D01*
Y29502D01*
Y29509D01*
Y29516D01*
X37841D01*
Y29524D01*
Y29531D01*
Y29539D01*
X37834D01*
Y29546D01*
Y29553D01*
X37827D01*
Y29561D01*
Y29568D01*
Y29576D01*
X37819D01*
Y29583D01*
Y29590D01*
X37812D01*
Y29598D01*
Y29605D01*
X37804D01*
Y29612D01*
Y29620D01*
X37797D01*
Y29627D01*
Y29635D01*
X37790D01*
Y29642D01*
Y29649D01*
X37782D01*
Y29657D01*
X37775D01*
Y29664D01*
Y29671D01*
X37760D01*
Y29679D01*
Y29686D01*
X37753D01*
Y29694D01*
Y29701D01*
X37745D01*
Y29708D01*
X37738D01*
Y29716D01*
X37731D01*
Y29723D01*
X37723D01*
Y29731D01*
X37716D01*
Y29738D01*
X37708D01*
Y29745D01*
X37701D01*
Y29753D01*
X37694D01*
Y29760D01*
X37686D01*
Y29767D01*
X37671D01*
Y29775D01*
Y29782D01*
X37664D01*
Y29790D01*
X37649D01*
Y29797D01*
X37642D01*
Y29804D01*
X37627D01*
Y29812D01*
X37620D01*
Y29819D01*
X37605D01*
Y29827D01*
X37590D01*
Y29834D01*
X37583D01*
Y29841D01*
X37568D01*
Y29849D01*
X37553D01*
Y29856D01*
X37531D01*
Y29863D01*
X37516D01*
Y29871D01*
X37494D01*
Y29878D01*
X37472D01*
Y29886D01*
X37435D01*
Y29893D01*
X37413D01*
Y29900D01*
D02*
G37*
G36*
X37347Y29000D02*
X37339D01*
Y28992D01*
X37317D01*
Y28985D01*
X37302D01*
Y28978D01*
Y28970D01*
X37324D01*
Y28978D01*
X37354D01*
Y28985D01*
Y28992D01*
X37347D01*
Y29000D01*
D02*
G37*
G36*
X37273Y28461D02*
X37169D01*
Y28453D01*
Y28446D01*
Y28439D01*
Y28431D01*
X37162D01*
Y28424D01*
Y28416D01*
Y28409D01*
Y28402D01*
X37155D01*
Y28394D01*
Y28387D01*
Y28380D01*
Y28372D01*
X37147D01*
Y28365D01*
Y28357D01*
Y28350D01*
Y28343D01*
X37140D01*
Y28335D01*
Y28328D01*
Y28320D01*
Y28313D01*
X37133D01*
Y28306D01*
Y28298D01*
Y28291D01*
Y28284D01*
Y28276D01*
X37125D01*
Y28269D01*
X37118D01*
Y28261D01*
Y28254D01*
Y28247D01*
Y28239D01*
X37110D01*
Y28232D01*
Y28224D01*
X37125D01*
Y28232D01*
X37140D01*
Y28239D01*
X37147D01*
Y28247D01*
X37155D01*
Y28254D01*
X37169D01*
Y28247D01*
Y28239D01*
X37162D01*
Y28232D01*
Y28224D01*
X37155D01*
Y28217D01*
X37140D01*
Y28210D01*
Y28202D01*
X37133D01*
Y28195D01*
X37125D01*
Y28202D01*
Y28210D01*
Y28217D01*
X37110D01*
Y28210D01*
X37103D01*
Y28202D01*
Y28195D01*
Y28188D01*
Y28180D01*
X37096D01*
Y28173D01*
Y28165D01*
Y28158D01*
Y28151D01*
Y28143D01*
Y28136D01*
X37088D01*
Y28128D01*
Y28121D01*
X37081D01*
Y28114D01*
Y28106D01*
X37073D01*
Y28114D01*
Y28121D01*
X37066D01*
Y28128D01*
Y28136D01*
Y28143D01*
Y28151D01*
X37059D01*
Y28158D01*
Y28165D01*
Y28173D01*
X37051D01*
Y28180D01*
Y28188D01*
Y28195D01*
Y28202D01*
X37037D01*
Y28195D01*
Y28188D01*
Y28180D01*
Y28173D01*
X37029D01*
Y28165D01*
Y28158D01*
Y28151D01*
Y28143D01*
Y28136D01*
Y28128D01*
Y28121D01*
Y28114D01*
Y28106D01*
Y28099D01*
X37022D01*
Y28092D01*
Y28084D01*
Y28077D01*
Y28069D01*
Y28062D01*
Y28055D01*
Y28047D01*
Y28040D01*
Y28033D01*
X37014D01*
Y28025D01*
Y28018D01*
Y28010D01*
Y28003D01*
Y27996D01*
X37022D01*
Y27988D01*
Y27981D01*
Y27973D01*
Y27966D01*
X37029D01*
Y27959D01*
Y27951D01*
Y27944D01*
X37037D01*
Y27937D01*
Y27929D01*
X37044D01*
Y27922D01*
Y27914D01*
Y27907D01*
Y27900D01*
X37051D01*
Y27892D01*
Y27885D01*
X37110D01*
Y27892D01*
Y27900D01*
Y27907D01*
Y27914D01*
X37118D01*
Y27922D01*
Y27929D01*
X37125D01*
Y27937D01*
X37118D01*
Y27944D01*
X37125D01*
Y27951D01*
Y27959D01*
X37133D01*
Y27966D01*
Y27973D01*
Y27981D01*
X37140D01*
Y27988D01*
Y27996D01*
Y28003D01*
Y28010D01*
X37147D01*
Y28018D01*
Y28025D01*
Y28033D01*
Y28040D01*
X37155D01*
Y28047D01*
Y28055D01*
Y28062D01*
X37162D01*
Y28069D01*
Y28077D01*
Y28084D01*
Y28092D01*
X37169D01*
Y28099D01*
Y28106D01*
X37177D01*
Y28114D01*
Y28121D01*
Y28128D01*
X37184D01*
Y28136D01*
Y28143D01*
Y28151D01*
Y28158D01*
X37192D01*
Y28165D01*
Y28173D01*
Y28180D01*
Y28188D01*
X37199D01*
Y28195D01*
Y28202D01*
Y28210D01*
X37206D01*
Y28217D01*
Y28224D01*
Y28232D01*
Y28239D01*
X37214D01*
Y28247D01*
Y28254D01*
Y28261D01*
Y28269D01*
Y28276D01*
Y28284D01*
X37199D01*
Y28276D01*
X37192D01*
Y28269D01*
X37184D01*
Y28261D01*
Y28254D01*
X37169D01*
Y28261D01*
Y28269D01*
X37177D01*
Y28276D01*
X37184D01*
Y28284D01*
X37192D01*
Y28291D01*
Y28298D01*
X37199D01*
Y28306D01*
Y28313D01*
Y28320D01*
Y28328D01*
X37206D01*
Y28335D01*
Y28343D01*
Y28350D01*
Y28357D01*
Y28365D01*
Y28372D01*
Y28380D01*
Y28387D01*
Y28394D01*
X37199D01*
Y28402D01*
Y28409D01*
X37214D01*
Y28402D01*
Y28394D01*
Y28387D01*
Y28380D01*
Y28372D01*
Y28365D01*
Y28357D01*
Y28350D01*
Y28343D01*
Y28335D01*
X37221D01*
Y28343D01*
X37229D01*
Y28350D01*
X37236D01*
Y28357D01*
X37243D01*
Y28365D01*
Y28372D01*
X37251D01*
Y28380D01*
Y28387D01*
X37258D01*
Y28394D01*
Y28402D01*
Y28409D01*
X37265D01*
Y28416D01*
Y28424D01*
X37273D01*
Y28431D01*
Y28439D01*
Y28446D01*
Y28453D01*
Y28461D01*
D02*
G37*
G36*
X37516Y28350D02*
X37480D01*
Y28343D01*
Y28335D01*
Y28328D01*
Y28320D01*
Y28313D01*
Y28306D01*
Y28298D01*
Y28291D01*
Y28284D01*
Y28276D01*
Y28269D01*
Y28261D01*
Y28254D01*
Y28247D01*
Y28239D01*
Y28232D01*
X37509D01*
Y28239D01*
Y28247D01*
Y28254D01*
Y28261D01*
Y28269D01*
Y28276D01*
Y28284D01*
Y28291D01*
X37502D01*
Y28298D01*
Y28306D01*
Y28313D01*
Y28320D01*
Y28328D01*
X37516D01*
Y28320D01*
Y28313D01*
Y28306D01*
Y28298D01*
Y28291D01*
Y28284D01*
Y28276D01*
Y28269D01*
Y28261D01*
Y28254D01*
Y28247D01*
Y28239D01*
Y28232D01*
X37546D01*
Y28239D01*
X37553D01*
Y28247D01*
X37561D01*
Y28254D01*
Y28261D01*
Y28269D01*
Y28276D01*
Y28284D01*
Y28291D01*
Y28298D01*
Y28306D01*
Y28313D01*
Y28320D01*
X37553D01*
Y28328D01*
X37546D01*
Y28335D01*
X37524D01*
Y28328D01*
X37516D01*
Y28335D01*
Y28343D01*
Y28350D01*
D02*
G37*
G36*
X37502Y28461D02*
X37354D01*
Y28453D01*
Y28446D01*
Y28439D01*
Y28431D01*
Y28424D01*
Y28416D01*
Y28409D01*
Y28402D01*
Y28394D01*
Y28387D01*
Y28380D01*
Y28372D01*
Y28365D01*
Y28357D01*
Y28350D01*
Y28343D01*
Y28335D01*
Y28328D01*
Y28320D01*
Y28313D01*
Y28306D01*
Y28298D01*
Y28291D01*
Y28284D01*
Y28276D01*
Y28269D01*
Y28261D01*
Y28254D01*
Y28247D01*
Y28239D01*
Y28232D01*
Y28224D01*
Y28217D01*
Y28210D01*
Y28202D01*
Y28195D01*
Y28188D01*
Y28180D01*
Y28173D01*
Y28165D01*
Y28158D01*
Y28151D01*
Y28143D01*
Y28136D01*
Y28128D01*
Y28121D01*
Y28114D01*
Y28106D01*
Y28099D01*
Y28092D01*
Y28084D01*
Y28077D01*
Y28069D01*
Y28062D01*
Y28055D01*
Y28047D01*
Y28040D01*
Y28033D01*
Y28025D01*
Y28018D01*
Y28010D01*
Y28003D01*
Y27996D01*
Y27988D01*
Y27981D01*
Y27973D01*
Y27966D01*
Y27959D01*
Y27951D01*
Y27944D01*
Y27937D01*
Y27929D01*
Y27922D01*
Y27914D01*
Y27907D01*
Y27900D01*
Y27892D01*
X37450D01*
Y27900D01*
X37457D01*
Y27907D01*
Y27914D01*
Y27922D01*
Y27929D01*
Y27937D01*
Y27944D01*
Y27951D01*
Y27959D01*
Y27966D01*
Y27973D01*
Y27981D01*
Y27988D01*
Y27996D01*
Y28003D01*
Y28010D01*
Y28018D01*
Y28025D01*
Y28033D01*
Y28040D01*
Y28047D01*
Y28055D01*
Y28062D01*
Y28069D01*
Y28077D01*
Y28084D01*
Y28092D01*
Y28099D01*
Y28106D01*
Y28114D01*
Y28121D01*
X37509D01*
Y28128D01*
Y28136D01*
Y28143D01*
Y28151D01*
Y28158D01*
Y28165D01*
Y28173D01*
Y28180D01*
Y28188D01*
Y28195D01*
Y28202D01*
X37450D01*
Y28210D01*
X37457D01*
Y28217D01*
Y28224D01*
Y28232D01*
Y28239D01*
Y28247D01*
Y28254D01*
Y28261D01*
Y28269D01*
Y28276D01*
Y28284D01*
Y28291D01*
Y28298D01*
Y28306D01*
Y28313D01*
Y28320D01*
Y28328D01*
Y28335D01*
Y28343D01*
Y28350D01*
Y28357D01*
Y28365D01*
X37450D01*
Y28372D01*
X37516D01*
Y28380D01*
Y28387D01*
X37509D01*
Y28394D01*
X37502D01*
Y28402D01*
X37494D01*
Y28409D01*
Y28416D01*
Y28424D01*
X37502D01*
Y28431D01*
Y28439D01*
Y28446D01*
Y28453D01*
Y28461D01*
D02*
G37*
%LPD*%
G36*
X37391Y29694D02*
X37420D01*
Y29686D01*
X37443D01*
Y29679D01*
X37457D01*
Y29671D01*
X37472D01*
Y29664D01*
X37487D01*
Y29657D01*
X37502D01*
Y29649D01*
X37516D01*
Y29642D01*
X37524D01*
Y29635D01*
X37531D01*
Y29627D01*
X37546D01*
Y29620D01*
X37553D01*
Y29612D01*
X37561D01*
Y29605D01*
X37568D01*
Y29598D01*
X37576D01*
Y29590D01*
X37583D01*
Y29583D01*
X37590D01*
Y29568D01*
X37598D01*
Y29561D01*
X37605D01*
Y29553D01*
X37612D01*
Y29539D01*
X37620D01*
Y29531D01*
X37627D01*
Y29516D01*
X37635D01*
Y29494D01*
X37642D01*
Y29480D01*
X37649D01*
Y29457D01*
X37657D01*
Y29428D01*
X37664D01*
Y29369D01*
X37671D01*
Y29339D01*
X37664D01*
Y29280D01*
X37657D01*
Y29251D01*
X37649D01*
Y29236D01*
X37642D01*
Y29258D01*
X37649D01*
Y29302D01*
X37657D01*
Y29413D01*
X37649D01*
Y29450D01*
X37642D01*
Y29472D01*
X37635D01*
Y29487D01*
X37627D01*
Y29502D01*
X37620D01*
Y29516D01*
X37612D01*
Y29531D01*
X37605D01*
Y29546D01*
X37598D01*
Y29553D01*
X37590D01*
Y29561D01*
X37583D01*
Y29568D01*
X37576D01*
Y29583D01*
X37568D01*
Y29590D01*
X37561D01*
Y29598D01*
X37553D01*
Y29605D01*
X37546D01*
Y29612D01*
X37531D01*
Y29620D01*
X37524D01*
Y29627D01*
X37516D01*
Y29635D01*
X37502D01*
Y29642D01*
X37494D01*
Y29649D01*
X37480D01*
Y29657D01*
X37465D01*
Y29664D01*
X37450D01*
Y29671D01*
X37428D01*
Y29679D01*
X37406D01*
Y29686D01*
X37361D01*
Y29694D01*
X37280D01*
Y29686D01*
X37243D01*
Y29679D01*
X37214D01*
Y29671D01*
X37199D01*
Y29664D01*
X37184D01*
Y29657D01*
X37169D01*
Y29649D01*
X37155D01*
Y29642D01*
X37140D01*
Y29635D01*
X37133D01*
Y29627D01*
X37118D01*
Y29620D01*
X37110D01*
Y29612D01*
X37103D01*
Y29605D01*
X37096D01*
Y29598D01*
X37088D01*
Y29590D01*
X37081D01*
Y29583D01*
X37073D01*
Y29576D01*
X37066D01*
Y29568D01*
X37059D01*
Y29561D01*
X37051D01*
Y29576D01*
X37059D01*
Y29583D01*
X37066D01*
Y29590D01*
X37073D01*
Y29605D01*
X37088D01*
Y29612D01*
X37096D01*
Y29620D01*
X37103D01*
Y29627D01*
X37110D01*
Y29635D01*
X37118D01*
Y29642D01*
X37133D01*
Y29649D01*
X37140D01*
Y29657D01*
X37155D01*
Y29664D01*
X37169D01*
Y29671D01*
X37184D01*
Y29679D01*
X37199D01*
Y29686D01*
X37221D01*
Y29694D01*
X37258D01*
Y29701D01*
X37391D01*
Y29694D01*
D02*
G37*
%LPC*%
G36*
X36335Y28365D02*
X36320D01*
Y28357D01*
X36313D01*
Y28350D01*
Y28343D01*
Y28335D01*
Y28328D01*
Y28320D01*
Y28313D01*
Y28306D01*
Y28298D01*
Y28291D01*
Y28284D01*
Y28276D01*
Y28269D01*
Y28261D01*
Y28254D01*
Y28247D01*
X36320D01*
Y28239D01*
X36343D01*
Y28247D01*
X36372D01*
Y28254D01*
X36387D01*
Y28261D01*
X36394D01*
Y28269D01*
Y28276D01*
Y28284D01*
Y28291D01*
Y28298D01*
Y28306D01*
Y28313D01*
Y28320D01*
Y28328D01*
Y28335D01*
Y28343D01*
X36380D01*
Y28350D01*
X36372D01*
Y28357D01*
X36335D01*
Y28365D01*
D02*
G37*
G36*
X36380Y28121D02*
X36313D01*
Y28114D01*
Y28106D01*
Y28099D01*
Y28092D01*
Y28084D01*
Y28077D01*
Y28069D01*
Y28062D01*
Y28055D01*
Y28047D01*
Y28040D01*
Y28033D01*
Y28025D01*
Y28018D01*
Y28010D01*
Y28003D01*
Y27996D01*
X36387D01*
Y28003D01*
X36394D01*
Y28010D01*
X36409D01*
Y28018D01*
Y28025D01*
X36416D01*
Y28033D01*
Y28040D01*
Y28047D01*
Y28055D01*
Y28062D01*
Y28069D01*
Y28077D01*
Y28084D01*
X36409D01*
Y28092D01*
Y28099D01*
X36402D01*
Y28106D01*
X36394D01*
Y28114D01*
X36380D01*
Y28121D01*
D02*
G37*
%LPD*%
D10*
X38300Y29000D02*
Y28700D01*
X38450D01*
X38500Y28750D01*
Y28800D01*
X38450Y28850D01*
X38300D01*
X38450D01*
X38500Y28900D01*
Y28950D01*
X38450Y29000D01*
X38300D01*
X38650Y28900D02*
X38750D01*
X38800Y28850D01*
Y28700D01*
X38650D01*
X38600Y28750D01*
X38650Y28800D01*
X38800D01*
X38950Y28950D02*
Y28900D01*
X38900D01*
X39000D01*
X38950D01*
Y28750D01*
X39000Y28700D01*
X39200Y28950D02*
Y28900D01*
X39150D01*
X39250D01*
X39200D01*
Y28750D01*
X39250Y28700D01*
X39550D02*
X39450D01*
X39400Y28750D01*
Y28850D01*
X39450Y28900D01*
X39550D01*
X39600Y28850D01*
Y28800D01*
X39400D01*
X39700Y28900D02*
Y28700D01*
Y28800D01*
X39750Y28850D01*
X39800Y28900D01*
X39850D01*
X39999D02*
Y28750D01*
X40049Y28700D01*
X40199D01*
Y28650D01*
X40149Y28600D01*
X40099D01*
X40199Y28700D02*
Y28900D01*
X40299Y29000D02*
Y28700D01*
X40449D01*
X40499Y28750D01*
Y28800D01*
X40449Y28850D01*
X40299D01*
X40449D01*
X40499Y28900D01*
Y28950D01*
X40449Y29000D01*
X40299D01*
X40649Y28700D02*
X40749D01*
X40799Y28750D01*
Y28850D01*
X40749Y28900D01*
X40649D01*
X40599Y28850D01*
Y28750D01*
X40649Y28700D01*
X40949Y28900D02*
X41049D01*
X41099Y28850D01*
Y28700D01*
X40949D01*
X40899Y28750D01*
X40949Y28800D01*
X41099D01*
X41199Y28900D02*
Y28700D01*
Y28800D01*
X41249Y28850D01*
X41299Y28900D01*
X41349D01*
X41699Y29000D02*
Y28700D01*
X41549D01*
X41499Y28750D01*
Y28850D01*
X41549Y28900D01*
X41699D01*
X42299Y28700D02*
X42099D01*
X42299Y28900D01*
Y28950D01*
X42249Y29000D01*
X42149D01*
X42099Y28950D01*
X42399D02*
X42449Y29000D01*
X42549D01*
X42599Y28950D01*
Y28750D01*
X42549Y28700D01*
X42449D01*
X42399Y28750D01*
Y28950D01*
X42699Y28700D02*
X42799D01*
X42749D01*
Y29000D01*
X42699Y28950D01*
X42948D02*
X42998Y29000D01*
X43098D01*
X43148Y28950D01*
Y28900D01*
X43098Y28850D01*
X43148Y28800D01*
Y28750D01*
X43098Y28700D01*
X42998D01*
X42948Y28750D01*
Y28800D01*
X42998Y28850D01*
X42948Y28900D01*
Y28950D01*
X42998Y28850D02*
X43098D01*
M02*
