G04*
G04 #@! TF.GenerationSoftware,Altium Limited,Altium Designer,18.0.12 (696)*
G04*
G04 Layer_Physical_Order=1*
G04 Layer_Color=255*
%FSLAX24Y24*%
%MOIN*%
G70*
G01*
G75*
%ADD10C,0.0100*%
%ADD14C,0.0200*%
%ADD15C,0.0600*%
%ADD16R,0.0600X0.0600*%
%ADD17R,0.1800X0.0900*%
D10*
X43600Y37550D02*
Y38300D01*
X44500Y29500D02*
Y29600D01*
X45550Y35600D02*
X45600D01*
X46550Y34600D02*
X49000D01*
X46550Y35600D02*
X49000D01*
X45450Y29500D02*
X45500D01*
D14*
Y32600D02*
X46050D01*
X44550Y33550D02*
X45500Y32600D01*
X43900Y43500D02*
X46050Y41350D01*
Y30050D02*
Y41350D01*
X45500Y29500D02*
X46050Y30050D01*
X43600Y33700D02*
Y41050D01*
X42750Y41900D02*
X43600Y41050D01*
X42150Y42500D02*
X42750Y41900D01*
X34700Y42500D02*
X42150D01*
X45550Y34600D02*
Y35600D01*
X43600Y37550D02*
X45550Y35600D01*
X32700Y42500D02*
X33700D01*
X34700D01*
X43600Y33700D02*
X45000Y32300D01*
Y30100D02*
Y32300D01*
X44500Y29600D02*
X45000Y30100D01*
X44550Y34600D02*
Y35600D01*
Y33550D02*
Y34600D01*
X32700Y43500D02*
X33700D01*
X34700D01*
X43900D01*
X41000Y31600D02*
X43400D01*
X44500Y30500D01*
X40500D02*
X44500D01*
X34200Y36800D02*
X40500Y30500D01*
X32150Y36800D02*
X34200D01*
X31000Y35650D02*
X32150Y36800D01*
X31000Y34400D02*
Y35650D01*
X32000Y34400D02*
X32450Y33950D01*
Y27650D02*
Y33950D01*
Y27650D02*
X33700Y26500D01*
D15*
X45500Y30500D02*
D03*
Y29500D02*
D03*
X44500Y30500D02*
D03*
Y29500D02*
D03*
X45550Y34600D02*
D03*
Y35600D02*
D03*
X44550Y34600D02*
D03*
Y35600D02*
D03*
X33950Y39450D02*
D03*
X31950D02*
D03*
X32950Y34400D02*
D03*
X32000D02*
D03*
X32700Y43500D02*
D03*
X33700D02*
D03*
X34700D02*
D03*
Y42500D02*
D03*
X33700D02*
D03*
X32700D02*
D03*
X38000Y29950D02*
D03*
X36000D02*
D03*
X33500D02*
D03*
X31500D02*
D03*
X29000D02*
D03*
X27000D02*
D03*
X41000Y31600D02*
D03*
Y32600D02*
D03*
Y33600D02*
D03*
Y34600D02*
D03*
Y35600D02*
D03*
Y36600D02*
D03*
Y37600D02*
D03*
Y38600D02*
D03*
Y39600D02*
D03*
Y40600D02*
D03*
Y41600D02*
D03*
X49000Y42600D02*
D03*
Y41600D02*
D03*
Y40600D02*
D03*
Y39600D02*
D03*
Y38600D02*
D03*
Y37600D02*
D03*
Y36600D02*
D03*
Y35600D02*
D03*
Y34600D02*
D03*
Y33600D02*
D03*
Y32600D02*
D03*
Y31600D02*
D03*
Y30600D02*
D03*
Y29600D02*
D03*
Y28600D02*
D03*
Y27600D02*
D03*
D16*
X46550Y34600D02*
D03*
Y35600D02*
D03*
X31000Y34400D02*
D03*
X34700Y41500D02*
D03*
X33700D02*
D03*
X32700D02*
D03*
D17*
X33700Y26500D02*
D03*
Y24100D02*
D03*
M02*
