G04*
G04 #@! TF.GenerationSoftware,Altium Limited,Altium Designer,18.0.12 (696)*
G04*
G04 Layer_Color=65535*
%FSLAX24Y24*%
%MOIN*%
G70*
G01*
G75*
%ADD10C,0.0100*%
G36*
X39169Y27545D02*
X39162D01*
Y27537D01*
X39155D01*
Y27552D01*
X39169D01*
Y27545D01*
D02*
G37*
G36*
X39420Y28896D02*
X39472D01*
Y28888D01*
X39509D01*
Y28881D01*
X39531D01*
Y28874D01*
X39561D01*
Y28866D01*
X39583D01*
Y28859D01*
X39605D01*
Y28851D01*
X39627D01*
Y28844D01*
X39649D01*
Y28837D01*
X39664D01*
Y28829D01*
X39679D01*
Y28822D01*
X39694D01*
Y28814D01*
X39708D01*
Y28807D01*
X39723D01*
Y28800D01*
X39738D01*
Y28792D01*
X39753D01*
Y28785D01*
X39760D01*
Y28778D01*
X39775D01*
Y28770D01*
X39782D01*
Y28763D01*
X39797D01*
Y28755D01*
X39804D01*
Y28748D01*
X39819D01*
Y28741D01*
X39827D01*
Y28733D01*
X39841D01*
Y28726D01*
X39849D01*
Y28718D01*
X39856D01*
Y28711D01*
X39863D01*
Y28704D01*
X39878D01*
Y28696D01*
X39886D01*
Y28689D01*
X39893D01*
Y28682D01*
X39900D01*
Y28674D01*
X39908D01*
Y28667D01*
X39915D01*
Y28659D01*
X39922D01*
Y28652D01*
X39930D01*
Y28645D01*
X39937D01*
Y28637D01*
X39945D01*
Y28630D01*
X39952D01*
Y28622D01*
X39959D01*
Y28615D01*
X39967D01*
Y28608D01*
X39974D01*
Y28593D01*
X39982D01*
Y28586D01*
X39989D01*
Y28571D01*
X40004D01*
Y28556D01*
X40011D01*
Y28541D01*
X40018D01*
Y28534D01*
X40026D01*
Y28519D01*
X40033D01*
Y28512D01*
X40041D01*
Y28497D01*
X40048D01*
Y28490D01*
X40055D01*
Y28475D01*
X40063D01*
Y28467D01*
X40070D01*
Y28445D01*
X40078D01*
Y28431D01*
X40085D01*
Y28416D01*
X40092D01*
Y28401D01*
X40100D01*
Y28386D01*
X40107D01*
Y28364D01*
X40114D01*
Y28349D01*
X40122D01*
Y28320D01*
X40129D01*
Y28298D01*
X40137D01*
Y28268D01*
X40144D01*
Y28239D01*
X40151D01*
Y28216D01*
X40159D01*
Y28209D01*
X40151D01*
Y28202D01*
X40159D01*
Y28172D01*
X40166D01*
Y27943D01*
X40159D01*
Y27914D01*
X40151D01*
Y27906D01*
X40159D01*
Y27899D01*
X40151D01*
Y27877D01*
X40144D01*
Y27847D01*
X40137D01*
Y27818D01*
X40129D01*
Y27788D01*
X40122D01*
Y27766D01*
X40114D01*
Y27744D01*
X40107D01*
Y27729D01*
X40100D01*
Y27714D01*
X40092D01*
Y27700D01*
X40085D01*
Y27678D01*
X40078D01*
Y27670D01*
X40070D01*
Y27655D01*
X40063D01*
Y27633D01*
X40055D01*
Y27626D01*
X40048D01*
Y27611D01*
X40041D01*
Y27604D01*
X40033D01*
Y27589D01*
X40026D01*
Y27582D01*
X40018D01*
Y27567D01*
X40011D01*
Y27559D01*
X40004D01*
Y27552D01*
X39996D01*
Y27537D01*
X39989D01*
Y27530D01*
X39982D01*
Y27522D01*
X39974D01*
Y27508D01*
X39967D01*
Y27500D01*
X39959D01*
Y27493D01*
X39952D01*
Y27486D01*
X39945D01*
Y27478D01*
X39937D01*
Y27471D01*
X39930D01*
Y27463D01*
X39922D01*
Y27456D01*
X39915D01*
Y27449D01*
X39908D01*
Y27441D01*
X39900D01*
Y27434D01*
X39893D01*
Y27427D01*
X39886D01*
Y27419D01*
X39878D01*
Y27412D01*
X39871D01*
Y27404D01*
X39856D01*
Y27397D01*
X39849D01*
Y27390D01*
X39841D01*
Y27382D01*
X39827D01*
Y27375D01*
X39819D01*
Y27367D01*
X39812D01*
Y27360D01*
X39797D01*
Y27353D01*
X39790D01*
Y27345D01*
X39775D01*
Y27338D01*
X39767D01*
Y27331D01*
X39753D01*
Y27323D01*
X39738D01*
Y27316D01*
X39723D01*
Y27308D01*
X39708D01*
Y27301D01*
X39694D01*
Y27294D01*
X39679D01*
Y27286D01*
X39664D01*
Y27279D01*
X39649D01*
Y27271D01*
X39635D01*
Y27264D01*
X39612D01*
Y27257D01*
X39590D01*
Y27249D01*
X39568D01*
Y27242D01*
X39539D01*
Y27235D01*
X39509D01*
Y27183D01*
X39583D01*
Y27175D01*
X39612D01*
Y27168D01*
X39627D01*
Y27161D01*
X39642D01*
Y27153D01*
X39649D01*
Y27146D01*
X39657D01*
Y27139D01*
X39664D01*
Y27131D01*
X39671D01*
Y27116D01*
X39679D01*
Y27102D01*
X39686D01*
Y27094D01*
X39694D01*
Y27072D01*
X39701D01*
Y27043D01*
X39708D01*
Y26924D01*
X39701D01*
Y26902D01*
X39694D01*
Y26888D01*
X39686D01*
Y26873D01*
X39679D01*
Y26865D01*
X39671D01*
Y26858D01*
X39664D01*
Y26851D01*
X39657D01*
Y26828D01*
X39664D01*
Y26814D01*
X39671D01*
Y26806D01*
X39679D01*
Y26792D01*
X39686D01*
Y26777D01*
X39694D01*
Y26755D01*
X39701D01*
Y26740D01*
X39708D01*
Y26710D01*
X39716D01*
Y26688D01*
X39723D01*
Y26659D01*
X39731D01*
Y26637D01*
X39738D01*
Y26622D01*
X39745D01*
Y26600D01*
X39753D01*
Y26577D01*
X39760D01*
Y26570D01*
X39598D01*
Y26600D01*
X39590D01*
Y26607D01*
X39583D01*
Y26614D01*
X39590D01*
Y26622D01*
X39583D01*
Y26637D01*
X39576D01*
Y26659D01*
X39568D01*
Y26688D01*
X39561D01*
Y26710D01*
X39553D01*
Y26733D01*
X39546D01*
Y26747D01*
X39539D01*
Y26762D01*
X39531D01*
Y26769D01*
X39524D01*
Y26563D01*
X39516D01*
Y26747D01*
X39509D01*
Y26799D01*
X39480D01*
Y26570D01*
X39332D01*
Y27183D01*
X39480D01*
Y27190D01*
X39487D01*
Y27183D01*
X39494D01*
Y27190D01*
X39502D01*
Y27205D01*
X39487D01*
Y27220D01*
X39480D01*
Y27242D01*
X39472D01*
Y27367D01*
X39465D01*
Y27404D01*
X39450D01*
Y27301D01*
X39443D01*
Y27419D01*
X39435D01*
Y27434D01*
X39443D01*
Y27456D01*
X39428D01*
Y27441D01*
X39420D01*
Y27412D01*
X39413D01*
Y27545D01*
X39406D01*
Y27552D01*
X39420D01*
Y27559D01*
X39428D01*
Y27545D01*
X39435D01*
Y27537D01*
X39443D01*
Y27522D01*
X39450D01*
Y27508D01*
X39457D01*
Y27500D01*
X39465D01*
Y27493D01*
X39457D01*
Y27500D01*
X39443D01*
Y27486D01*
X39450D01*
Y27456D01*
X39480D01*
Y27367D01*
X39494D01*
Y27478D01*
X39487D01*
Y27493D01*
X39480D01*
Y27508D01*
X39472D01*
Y27522D01*
X39465D01*
Y27530D01*
X39457D01*
Y27545D01*
X39450D01*
Y27559D01*
X39443D01*
Y27574D01*
X39435D01*
Y27582D01*
X39428D01*
Y27604D01*
X39420D01*
Y27618D01*
X39413D01*
Y27626D01*
X39406D01*
Y27641D01*
X39398D01*
Y27655D01*
X39384D01*
Y27648D01*
X39347D01*
Y27641D01*
X39332D01*
Y27633D01*
X39324D01*
Y27626D01*
X39280D01*
Y27633D01*
X39288D01*
Y27648D01*
X39265D01*
Y27641D01*
X39251D01*
Y27626D01*
X39280D01*
Y27618D01*
X39265D01*
Y27611D01*
X39243D01*
Y27604D01*
X39221D01*
Y27596D01*
X39199D01*
Y27589D01*
X39192D01*
Y27596D01*
X39184D01*
Y27589D01*
X39177D01*
Y27582D01*
X39155D01*
Y27574D01*
X39133D01*
Y27567D01*
X39110D01*
Y27508D01*
X39103D01*
Y27493D01*
X39110D01*
Y27478D01*
X39118D01*
Y27471D01*
X39110D01*
Y27463D01*
X39103D01*
Y27441D01*
X39096D01*
Y27515D01*
X39103D01*
Y27545D01*
X39088D01*
Y27552D01*
X39073D01*
Y27559D01*
X39059D01*
Y27567D01*
X39044D01*
Y27574D01*
X39029D01*
Y27582D01*
X39022D01*
Y27589D01*
X39007D01*
Y27596D01*
X39000D01*
Y27604D01*
X38992D01*
Y27611D01*
X38978D01*
Y27618D01*
X38970D01*
Y27626D01*
X38963D01*
Y27633D01*
X38955D01*
Y27641D01*
X38948D01*
Y27648D01*
X38941D01*
Y27655D01*
X38933D01*
Y27663D01*
X38926D01*
Y27670D01*
X38918D01*
Y27678D01*
X38911D01*
Y27685D01*
X38904D01*
Y27692D01*
X38896D01*
Y27700D01*
X38889D01*
Y27707D01*
X38882D01*
Y27714D01*
X38874D01*
Y27729D01*
X38867D01*
Y27744D01*
X38859D01*
Y27751D01*
X38852D01*
Y27759D01*
X38845D01*
Y27766D01*
X38837D01*
Y27788D01*
X38830D01*
Y27796D01*
X38822D01*
Y27818D01*
X38815D01*
Y27833D01*
X38808D01*
Y27855D01*
X38800D01*
Y27862D01*
X38793D01*
Y27884D01*
X38786D01*
Y27914D01*
X38778D01*
Y27943D01*
X38771D01*
Y27995D01*
X38763D01*
Y28120D01*
X38771D01*
Y28165D01*
X38778D01*
Y28202D01*
X38786D01*
Y28224D01*
X38793D01*
Y28239D01*
X38800D01*
Y28246D01*
X38793D01*
Y28253D01*
X38800D01*
Y28268D01*
X38808D01*
Y28283D01*
X38815D01*
Y28298D01*
X38822D01*
Y28312D01*
X38830D01*
Y28335D01*
X38837D01*
Y28342D01*
X38845D01*
Y28357D01*
X38852D01*
Y28364D01*
X38859D01*
Y28379D01*
X38867D01*
Y28386D01*
X38874D01*
Y28394D01*
X38882D01*
Y28408D01*
X38889D01*
Y28416D01*
X38896D01*
Y28423D01*
X38904D01*
Y28438D01*
X38911D01*
Y28445D01*
X38918D01*
Y28453D01*
X38926D01*
Y28460D01*
X38933D01*
Y28467D01*
X38941D01*
Y28475D01*
X38948D01*
Y28482D01*
X38963D01*
Y28490D01*
X38970D01*
Y28497D01*
X38978D01*
Y28504D01*
X38992D01*
Y28512D01*
X39000D01*
Y28519D01*
X39014D01*
Y28527D01*
X39022D01*
Y28534D01*
X39037D01*
Y28541D01*
X39044D01*
Y28549D01*
X39059D01*
Y28556D01*
X39073D01*
Y28563D01*
X39088D01*
Y28571D01*
X39110D01*
Y28578D01*
X39125D01*
Y28586D01*
X39147D01*
Y28593D01*
X39169D01*
Y28600D01*
X39206D01*
Y28608D01*
X39236D01*
Y28615D01*
X39413D01*
Y28608D01*
X39443D01*
Y28600D01*
X39472D01*
Y28593D01*
X39494D01*
Y28586D01*
X39524D01*
Y28578D01*
X39539D01*
Y28571D01*
X39553D01*
Y28563D01*
X39568D01*
Y28556D01*
X39583D01*
Y28549D01*
X39598D01*
Y28541D01*
X39612D01*
Y28534D01*
X39627D01*
Y28527D01*
X39635D01*
Y28519D01*
X39649D01*
Y28512D01*
X39657D01*
Y28504D01*
X39664D01*
Y28497D01*
X39671D01*
Y28490D01*
X39686D01*
Y28482D01*
X39694D01*
Y28475D01*
X39701D01*
Y28467D01*
X39708D01*
Y28460D01*
X39716D01*
Y28453D01*
X39723D01*
Y28445D01*
X39731D01*
Y28438D01*
X39738D01*
Y28431D01*
X39745D01*
Y28423D01*
X39753D01*
Y28408D01*
X39760D01*
Y28401D01*
X39767D01*
Y28394D01*
X39775D01*
Y28386D01*
X39782D01*
Y28371D01*
X39790D01*
Y28357D01*
X39797D01*
Y28349D01*
X39804D01*
Y28335D01*
X39812D01*
Y28320D01*
X39819D01*
Y28312D01*
X39827D01*
Y28298D01*
X39834D01*
Y28276D01*
X39841D01*
Y28253D01*
X39849D01*
Y28231D01*
X39856D01*
Y28209D01*
X39863D01*
Y28172D01*
X39871D01*
Y28157D01*
X39878D01*
Y28150D01*
X39871D01*
Y28135D01*
X39878D01*
Y28098D01*
X39886D01*
Y28017D01*
X39878D01*
Y27980D01*
X39871D01*
Y27965D01*
X39878D01*
Y27958D01*
X39871D01*
Y27936D01*
X39863D01*
Y27906D01*
X39856D01*
Y27877D01*
X39849D01*
Y27855D01*
X39841D01*
Y27840D01*
X39834D01*
Y27825D01*
X39827D01*
Y27810D01*
X39819D01*
Y27796D01*
X39812D01*
Y27781D01*
X39804D01*
Y27766D01*
X39797D01*
Y27751D01*
X39790D01*
Y27737D01*
X39782D01*
Y27729D01*
X39775D01*
Y27722D01*
X39767D01*
Y27714D01*
X39760D01*
Y27700D01*
X39745D01*
Y27685D01*
X39738D01*
Y27678D01*
X39731D01*
Y27670D01*
X39723D01*
Y27663D01*
X39716D01*
Y27655D01*
X39708D01*
Y27648D01*
X39701D01*
Y27641D01*
X39694D01*
Y27633D01*
X39686D01*
Y27626D01*
X39679D01*
Y27618D01*
X39671D01*
Y27611D01*
X39657D01*
Y27604D01*
X39649D01*
Y27596D01*
X39635D01*
Y27589D01*
X39627D01*
Y27582D01*
X39612D01*
Y27574D01*
X39598D01*
Y27567D01*
X39583D01*
Y27559D01*
X39568D01*
Y27552D01*
X39553D01*
Y27545D01*
X39539D01*
Y27537D01*
X39524D01*
Y27530D01*
X39516D01*
Y27515D01*
X39524D01*
Y27493D01*
X39531D01*
Y27486D01*
X39516D01*
Y27478D01*
X39509D01*
Y27471D01*
X39502D01*
Y27323D01*
X39509D01*
Y27264D01*
X39502D01*
Y27257D01*
X39539D01*
Y27264D01*
X39561D01*
Y27271D01*
X39583D01*
Y27279D01*
X39605D01*
Y27286D01*
X39627D01*
Y27294D01*
X39642D01*
Y27301D01*
X39657D01*
Y27308D01*
X39671D01*
Y27316D01*
X39686D01*
Y27323D01*
X39701D01*
Y27331D01*
X39716D01*
Y27338D01*
X39731D01*
Y27345D01*
X39745D01*
Y27353D01*
X39753D01*
Y27360D01*
X39767D01*
Y27367D01*
X39782D01*
Y27375D01*
X39790D01*
Y27382D01*
X39804D01*
Y27390D01*
X39812D01*
Y27397D01*
X39819D01*
Y27404D01*
X39834D01*
Y27412D01*
X39841D01*
Y27419D01*
X39849D01*
Y27427D01*
X39856D01*
Y27434D01*
X39863D01*
Y27441D01*
X39871D01*
Y27449D01*
X39886D01*
Y27456D01*
X39893D01*
Y27463D01*
X39900D01*
Y27471D01*
X39908D01*
Y27478D01*
X39915D01*
Y27486D01*
X39922D01*
Y27493D01*
X39930D01*
Y27508D01*
X39937D01*
Y27515D01*
X39945D01*
Y27522D01*
X39952D01*
Y27530D01*
X39959D01*
Y27537D01*
X39967D01*
Y27545D01*
X39974D01*
Y27559D01*
X39982D01*
Y27567D01*
X39989D01*
Y27574D01*
X39996D01*
Y27589D01*
X40004D01*
Y27596D01*
X40011D01*
Y27611D01*
X40018D01*
Y27626D01*
X40026D01*
Y27633D01*
X40033D01*
Y27641D01*
X40041D01*
Y27663D01*
X40048D01*
Y27678D01*
X40055D01*
Y27692D01*
X40063D01*
Y27700D01*
X40070D01*
Y27714D01*
X40078D01*
Y27729D01*
X40085D01*
Y27759D01*
X40092D01*
Y27773D01*
X40100D01*
Y27788D01*
X40107D01*
Y27810D01*
X40114D01*
Y27840D01*
X40122D01*
Y27869D01*
X40129D01*
Y27914D01*
X40137D01*
Y27973D01*
X40144D01*
Y28143D01*
X40137D01*
Y28202D01*
X40129D01*
Y28239D01*
X40122D01*
Y28268D01*
X40114D01*
Y28305D01*
X40107D01*
Y28327D01*
X40100D01*
Y28342D01*
X40092D01*
Y28357D01*
X40085D01*
Y28379D01*
X40078D01*
Y28401D01*
X40070D01*
Y28416D01*
X40063D01*
Y28423D01*
X40055D01*
Y28438D01*
X40048D01*
Y28453D01*
X40041D01*
Y28467D01*
X40033D01*
Y28482D01*
X40026D01*
Y28497D01*
X40018D01*
Y28504D01*
X40011D01*
Y28519D01*
X40004D01*
Y28527D01*
X39996D01*
Y28534D01*
X39989D01*
Y28549D01*
X39982D01*
Y28563D01*
X39967D01*
Y28571D01*
X39959D01*
Y28586D01*
X39952D01*
Y28593D01*
X39945D01*
Y28600D01*
X39937D01*
Y28608D01*
X39930D01*
Y28615D01*
X39922D01*
Y28622D01*
X39915D01*
Y28630D01*
X39908D01*
Y28637D01*
X39900D01*
Y28645D01*
X39893D01*
Y28652D01*
X39886D01*
Y28659D01*
X39878D01*
Y28667D01*
X39871D01*
Y28674D01*
X39863D01*
Y28682D01*
X39856D01*
Y28689D01*
X39849D01*
Y28696D01*
X39841D01*
Y28704D01*
X39827D01*
Y28711D01*
X39819D01*
Y28718D01*
X39812D01*
Y28726D01*
X39797D01*
Y28733D01*
X39790D01*
Y28741D01*
X39782D01*
Y28748D01*
X39767D01*
Y28755D01*
X39760D01*
Y28763D01*
X39745D01*
Y28770D01*
X39731D01*
Y28778D01*
X39716D01*
Y28785D01*
X39701D01*
Y28792D01*
X39686D01*
Y28800D01*
X39671D01*
Y28807D01*
X39657D01*
Y28814D01*
X39642D01*
Y28822D01*
X39627D01*
Y28829D01*
X39605D01*
Y28837D01*
X39583D01*
Y28844D01*
X39553D01*
Y28851D01*
X39531D01*
Y28859D01*
X39494D01*
Y28866D01*
X39472D01*
Y28874D01*
X39420D01*
Y28881D01*
X39229D01*
Y28874D01*
X39177D01*
Y28866D01*
X39147D01*
Y28859D01*
X39110D01*
Y28851D01*
X39088D01*
Y28844D01*
X39066D01*
Y28837D01*
X39044D01*
Y28829D01*
X39022D01*
Y28822D01*
X39007D01*
Y28814D01*
X38992D01*
Y28807D01*
X38970D01*
Y28800D01*
X38955D01*
Y28792D01*
X38941D01*
Y28785D01*
X38926D01*
Y28778D01*
X38918D01*
Y28770D01*
X38904D01*
Y28763D01*
X38889D01*
Y28755D01*
X38882D01*
Y28748D01*
X38867D01*
Y28741D01*
X38859D01*
Y28733D01*
X38845D01*
Y28726D01*
X38837D01*
Y28718D01*
X38822D01*
Y28711D01*
X38815D01*
Y28704D01*
X38808D01*
Y28696D01*
X38800D01*
Y28689D01*
X38786D01*
Y28682D01*
X38778D01*
Y28674D01*
X38771D01*
Y28667D01*
X38763D01*
Y28659D01*
X38756D01*
Y28652D01*
X38749D01*
Y28645D01*
X38741D01*
Y28637D01*
X38734D01*
Y28630D01*
X38726D01*
Y28622D01*
X38719D01*
Y28615D01*
X38712D01*
Y28608D01*
X38704D01*
Y28600D01*
X38697D01*
Y28593D01*
X38690D01*
Y28578D01*
X38682D01*
Y28571D01*
X38675D01*
Y28556D01*
X38660D01*
Y28541D01*
X38653D01*
Y28534D01*
X38645D01*
Y28527D01*
X38638D01*
Y28512D01*
X38631D01*
Y28497D01*
X38623D01*
Y28482D01*
X38616D01*
Y28475D01*
X38608D01*
Y28460D01*
X38601D01*
Y28453D01*
X38594D01*
Y28438D01*
X38586D01*
Y28423D01*
X38579D01*
Y28401D01*
X38571D01*
Y28386D01*
X38564D01*
Y28379D01*
X38557D01*
Y28357D01*
X38549D01*
Y28335D01*
X38542D01*
Y28305D01*
X38535D01*
Y28283D01*
X38527D01*
Y28261D01*
X38520D01*
Y28231D01*
X38512D01*
Y28187D01*
X38505D01*
Y28113D01*
X38498D01*
Y28002D01*
X38505D01*
Y27929D01*
X38512D01*
Y27884D01*
X38520D01*
Y27847D01*
X38527D01*
Y27833D01*
X38535D01*
Y27803D01*
X38542D01*
Y27781D01*
X38549D01*
Y27759D01*
X38557D01*
Y27744D01*
X38564D01*
Y27729D01*
X38571D01*
Y27714D01*
X38579D01*
Y27700D01*
X38586D01*
Y27678D01*
X38594D01*
Y27663D01*
X38601D01*
Y27648D01*
X38608D01*
Y27641D01*
X38616D01*
Y27626D01*
X38623D01*
Y27618D01*
X38631D01*
Y27604D01*
X38638D01*
Y27596D01*
X38645D01*
Y27582D01*
X38653D01*
Y27574D01*
X38660D01*
Y27567D01*
X38667D01*
Y27552D01*
X38675D01*
Y27545D01*
X38682D01*
Y27530D01*
X38697D01*
Y27515D01*
X38704D01*
Y27508D01*
X38712D01*
Y27500D01*
X38719D01*
Y27493D01*
X38726D01*
Y27486D01*
X38734D01*
Y27478D01*
X38741D01*
Y27471D01*
X38749D01*
Y27463D01*
X38756D01*
Y27456D01*
X38763D01*
Y27449D01*
X38771D01*
Y27441D01*
X38778D01*
Y27434D01*
X38793D01*
Y27427D01*
X38800D01*
Y27419D01*
X38808D01*
Y27412D01*
X38815D01*
Y27404D01*
X38822D01*
Y27397D01*
X38837D01*
Y27390D01*
X38845D01*
Y27382D01*
X38859D01*
Y27375D01*
X38867D01*
Y27367D01*
X38874D01*
Y27360D01*
X38889D01*
Y27353D01*
X38896D01*
Y27345D01*
X38911D01*
Y27338D01*
X38926D01*
Y27331D01*
X38941D01*
Y27323D01*
X38955D01*
Y27316D01*
X38970D01*
Y27308D01*
X38985D01*
Y27301D01*
X39000D01*
Y27294D01*
X39022D01*
Y27286D01*
X39044D01*
Y27279D01*
X39059D01*
Y27271D01*
X39073D01*
Y27301D01*
X39081D01*
Y27375D01*
X39088D01*
Y27441D01*
X39096D01*
Y27390D01*
X39110D01*
Y27382D01*
X39103D01*
Y27367D01*
X39125D01*
Y27375D01*
X39133D01*
Y27434D01*
X39147D01*
Y27449D01*
X39140D01*
Y27478D01*
X39147D01*
Y27493D01*
X39155D01*
Y27500D01*
X39162D01*
Y27522D01*
X39169D01*
Y27530D01*
X39177D01*
Y27545D01*
X39199D01*
Y27530D01*
X39206D01*
Y27508D01*
X39221D01*
Y27530D01*
X39229D01*
Y27545D01*
X39236D01*
Y27552D01*
X39243D01*
Y27559D01*
X39251D01*
Y27567D01*
X39273D01*
Y27559D01*
X39280D01*
Y27552D01*
X39273D01*
Y27530D01*
X39288D01*
Y27545D01*
X39295D01*
Y27567D01*
X39302D01*
Y27574D01*
X39310D01*
Y27582D01*
X39332D01*
Y27589D01*
X39339D01*
Y27537D01*
X39354D01*
Y27530D01*
X39339D01*
Y27493D01*
X39347D01*
Y27486D01*
X39339D01*
Y27471D01*
X39332D01*
Y27441D01*
X39339D01*
Y27434D01*
X39332D01*
Y27367D01*
X39339D01*
Y27360D01*
X39332D01*
Y27367D01*
X39317D01*
Y27360D01*
X39302D01*
Y27353D01*
X39288D01*
Y27338D01*
X39302D01*
Y27345D01*
X39332D01*
Y27316D01*
X39339D01*
Y27308D01*
X39324D01*
Y27301D01*
X39295D01*
Y27294D01*
X39273D01*
Y27301D01*
X39280D01*
Y27367D01*
X39288D01*
Y27508D01*
X39273D01*
Y27471D01*
X39265D01*
Y27412D01*
X39273D01*
Y27404D01*
X39265D01*
Y27360D01*
X39258D01*
Y27338D01*
X39265D01*
Y27331D01*
X39258D01*
Y27338D01*
X39229D01*
Y27331D01*
X39214D01*
Y27338D01*
X39221D01*
Y27360D01*
X39214D01*
Y27367D01*
X39221D01*
Y27493D01*
X39206D01*
Y27471D01*
X39199D01*
Y27360D01*
X39192D01*
Y27331D01*
X39184D01*
Y27316D01*
X39169D01*
Y27308D01*
X39155D01*
Y27294D01*
X39177D01*
Y27301D01*
X39184D01*
Y27279D01*
X39206D01*
Y27286D01*
X39214D01*
Y27316D01*
X39243D01*
Y27323D01*
X39258D01*
Y27286D01*
X39236D01*
Y27279D01*
X39214D01*
Y27271D01*
X39199D01*
Y27264D01*
X39177D01*
Y27286D01*
X39162D01*
Y27257D01*
X39147D01*
Y27249D01*
X39140D01*
Y27242D01*
X39125D01*
Y27249D01*
X39118D01*
Y27257D01*
X39125D01*
Y27264D01*
X39133D01*
Y27308D01*
X39125D01*
Y27316D01*
X39133D01*
Y27308D01*
X39140D01*
Y27316D01*
X39147D01*
Y27353D01*
X39133D01*
Y27338D01*
X39125D01*
Y27331D01*
X39118D01*
Y27338D01*
X39110D01*
Y27331D01*
X39096D01*
Y27301D01*
X39088D01*
Y27294D01*
X39081D01*
Y27264D01*
X39073D01*
Y27183D01*
X39066D01*
Y27109D01*
X39059D01*
Y27050D01*
X39051D01*
Y26961D01*
X39059D01*
Y26932D01*
X39066D01*
Y26902D01*
X39081D01*
Y26910D01*
X39088D01*
Y26939D01*
X39096D01*
Y26976D01*
X39103D01*
Y26991D01*
X39096D01*
Y26998D01*
X39110D01*
Y27028D01*
X39118D01*
Y27057D01*
X39125D01*
Y27072D01*
X39133D01*
Y27102D01*
X39140D01*
Y27131D01*
X39147D01*
Y27161D01*
X39155D01*
Y27183D01*
X39162D01*
Y27190D01*
X39169D01*
Y27183D01*
X39310D01*
Y27175D01*
X39302D01*
Y27146D01*
X39295D01*
Y27116D01*
X39288D01*
Y27102D01*
X39280D01*
Y27094D01*
X39295D01*
Y27087D01*
X39280D01*
Y27065D01*
X39273D01*
Y27043D01*
X39265D01*
Y27028D01*
X39258D01*
Y27006D01*
X39251D01*
Y26976D01*
X39243D01*
Y26947D01*
X39236D01*
Y26924D01*
X39229D01*
Y26895D01*
X39221D01*
Y26880D01*
X39214D01*
Y26851D01*
X39206D01*
Y26828D01*
X39199D01*
Y26799D01*
X39192D01*
Y26777D01*
X39184D01*
Y26747D01*
X39177D01*
Y26733D01*
X39169D01*
Y26703D01*
X39162D01*
Y26681D01*
X39155D01*
Y26651D01*
X39147D01*
Y26622D01*
X39140D01*
Y26600D01*
X39133D01*
Y26585D01*
X39125D01*
Y26563D01*
X39029D01*
Y26585D01*
X39022D01*
Y26607D01*
X39007D01*
Y26592D01*
X39000D01*
Y26688D01*
X38992D01*
Y26718D01*
X38985D01*
Y26733D01*
X38978D01*
Y26755D01*
X38970D01*
Y26784D01*
X38963D01*
Y26806D01*
X38955D01*
Y26836D01*
X38948D01*
Y26858D01*
X38941D01*
Y26865D01*
X38926D01*
Y26843D01*
X38918D01*
Y26821D01*
X38911D01*
Y26792D01*
X38904D01*
Y26769D01*
X38896D01*
Y26755D01*
X38889D01*
Y26733D01*
X38882D01*
Y26703D01*
X38874D01*
Y26673D01*
X38867D01*
Y26651D01*
X38859D01*
Y26629D01*
X38852D01*
Y26614D01*
X38845D01*
Y26585D01*
X38837D01*
Y26563D01*
X38741D01*
Y26577D01*
X38734D01*
Y26607D01*
X38726D01*
Y26637D01*
X38719D01*
Y26666D01*
X38712D01*
Y26696D01*
X38704D01*
Y26703D01*
X38697D01*
Y26733D01*
X38690D01*
Y26762D01*
X38682D01*
Y26792D01*
X38675D01*
Y26814D01*
X38667D01*
Y26843D01*
X38660D01*
Y26858D01*
X38653D01*
Y26880D01*
X38645D01*
Y26910D01*
X38638D01*
Y26939D01*
X38631D01*
Y26969D01*
X38623D01*
Y26991D01*
X38616D01*
Y27006D01*
X38608D01*
Y27013D01*
X38616D01*
Y27020D01*
X38608D01*
Y27035D01*
X38601D01*
Y27057D01*
X38594D01*
Y27094D01*
X38586D01*
Y27116D01*
X38579D01*
Y27146D01*
X38571D01*
Y27168D01*
X38564D01*
Y27183D01*
X38719D01*
Y27161D01*
X38726D01*
Y27124D01*
X38734D01*
Y27094D01*
X38741D01*
Y27065D01*
X38749D01*
Y27035D01*
X38756D01*
Y27020D01*
X38763D01*
Y27013D01*
X38756D01*
Y27006D01*
X38763D01*
Y26991D01*
X38771D01*
Y26954D01*
X38778D01*
Y26932D01*
X38786D01*
Y26902D01*
X38800D01*
Y26917D01*
X38808D01*
Y26947D01*
X38815D01*
Y26969D01*
X38822D01*
Y26998D01*
X38830D01*
Y27028D01*
X38837D01*
Y27050D01*
X38845D01*
Y27065D01*
X38852D01*
Y27087D01*
X38859D01*
Y27116D01*
X38867D01*
Y27146D01*
X38874D01*
Y27168D01*
X38882D01*
Y27183D01*
X38992D01*
Y27161D01*
X39000D01*
Y27131D01*
X39007D01*
Y27109D01*
X39014D01*
Y27080D01*
X39022D01*
Y27057D01*
X39029D01*
Y27028D01*
X39044D01*
Y27057D01*
X39051D01*
Y27124D01*
X39059D01*
Y27198D01*
X39066D01*
Y27249D01*
X39051D01*
Y27257D01*
X39029D01*
Y27264D01*
X39014D01*
Y27271D01*
X38992D01*
Y27279D01*
X38978D01*
Y27286D01*
X38963D01*
Y27294D01*
X38948D01*
Y27301D01*
X38933D01*
Y27308D01*
X38918D01*
Y27316D01*
X38904D01*
Y27323D01*
X38889D01*
Y27331D01*
X38882D01*
Y27338D01*
X38867D01*
Y27345D01*
X38852D01*
Y27353D01*
X38845D01*
Y27360D01*
X38837D01*
Y27367D01*
X38822D01*
Y27375D01*
X38815D01*
Y27382D01*
X38808D01*
Y27390D01*
X38793D01*
Y27397D01*
X38786D01*
Y27404D01*
X38778D01*
Y27412D01*
X38771D01*
Y27419D01*
X38763D01*
Y27427D01*
X38756D01*
Y27434D01*
X38749D01*
Y27441D01*
X38734D01*
Y27449D01*
X38726D01*
Y27456D01*
X38719D01*
Y27463D01*
X38712D01*
Y27478D01*
X38704D01*
Y27486D01*
X38697D01*
Y27493D01*
X38690D01*
Y27500D01*
X38682D01*
Y27508D01*
X38675D01*
Y27515D01*
X38667D01*
Y27522D01*
X38660D01*
Y27537D01*
X38653D01*
Y27545D01*
X38645D01*
Y27559D01*
X38638D01*
Y27567D01*
X38631D01*
Y27574D01*
X38623D01*
Y27589D01*
X38616D01*
Y27596D01*
X38608D01*
Y27611D01*
X38601D01*
Y27618D01*
X38594D01*
Y27633D01*
X38586D01*
Y27648D01*
X38579D01*
Y27663D01*
X38571D01*
Y27678D01*
X38564D01*
Y27692D01*
X38557D01*
Y27707D01*
X38549D01*
Y27722D01*
X38542D01*
Y27744D01*
X38535D01*
Y27759D01*
X38527D01*
Y27788D01*
X38520D01*
Y27796D01*
X38512D01*
Y27825D01*
X38505D01*
Y27855D01*
X38498D01*
Y27884D01*
X38490D01*
Y27936D01*
X38483D01*
Y28010D01*
X38475D01*
Y28106D01*
X38483D01*
Y28180D01*
X38490D01*
Y28224D01*
X38498D01*
Y28261D01*
X38505D01*
Y28290D01*
X38512D01*
Y28320D01*
X38520D01*
Y28335D01*
X38527D01*
Y28349D01*
X38535D01*
Y28371D01*
X38542D01*
Y28394D01*
X38549D01*
Y28408D01*
X38557D01*
Y28431D01*
X38564D01*
Y28445D01*
X38571D01*
Y28460D01*
X38579D01*
Y28467D01*
X38586D01*
Y28482D01*
X38594D01*
Y28490D01*
X38601D01*
Y28512D01*
X38608D01*
Y28519D01*
X38616D01*
Y28527D01*
X38623D01*
Y28534D01*
X38631D01*
Y28549D01*
X38638D01*
Y28563D01*
X38645D01*
Y28571D01*
X38653D01*
Y28578D01*
X38660D01*
Y28593D01*
X38667D01*
Y28600D01*
X38675D01*
Y28608D01*
X38682D01*
Y28615D01*
X38690D01*
Y28622D01*
X38697D01*
Y28630D01*
X38704D01*
Y28637D01*
X38712D01*
Y28645D01*
X38719D01*
Y28652D01*
X38726D01*
Y28659D01*
X38734D01*
Y28667D01*
X38741D01*
Y28674D01*
X38749D01*
Y28682D01*
X38756D01*
Y28689D01*
X38763D01*
Y28696D01*
X38771D01*
Y28704D01*
X38778D01*
Y28711D01*
X38793D01*
Y28718D01*
X38800D01*
Y28726D01*
X38808D01*
Y28733D01*
X38815D01*
Y28741D01*
X38830D01*
Y28748D01*
X38837D01*
Y28755D01*
X38845D01*
Y28763D01*
X38859D01*
Y28770D01*
X38867D01*
Y28778D01*
X38882D01*
Y28785D01*
X38896D01*
Y28792D01*
X38911D01*
Y28800D01*
X38918D01*
Y28807D01*
X38933D01*
Y28814D01*
X38948D01*
Y28822D01*
X38963D01*
Y28829D01*
X38978D01*
Y28837D01*
X39000D01*
Y28844D01*
X39014D01*
Y28851D01*
X39037D01*
Y28859D01*
X39059D01*
Y28866D01*
X39081D01*
Y28874D01*
X39110D01*
Y28881D01*
X39133D01*
Y28888D01*
X39169D01*
Y28896D01*
X39229D01*
Y28903D01*
X39420D01*
Y28896D01*
D02*
G37*
G36*
X39398Y27294D02*
X39406D01*
Y27279D01*
X39413D01*
Y27271D01*
X39420D01*
Y27264D01*
X39413D01*
Y27257D01*
X39406D01*
Y27264D01*
X39391D01*
Y27249D01*
X39398D01*
Y27242D01*
X39391D01*
Y27249D01*
X39384D01*
Y27279D01*
X39376D01*
Y27301D01*
X39398D01*
Y27294D01*
D02*
G37*
G36*
X39302Y27271D02*
X39310D01*
Y27249D01*
X39295D01*
Y27257D01*
X39302D01*
Y27271D01*
X39295D01*
Y27279D01*
X39302D01*
Y27271D01*
D02*
G37*
G36*
X39243Y27249D02*
X39236D01*
Y27227D01*
X39214D01*
Y27249D01*
X39221D01*
Y27257D01*
X39243D01*
Y27249D01*
D02*
G37*
G36*
X39465Y27220D02*
X39457D01*
Y27242D01*
X39465D01*
Y27220D01*
D02*
G37*
G36*
X39162Y27212D02*
X39177D01*
Y27205D01*
X39155D01*
Y27227D01*
X39162D01*
Y27212D01*
D02*
G37*
G36*
X39317Y27028D02*
X39302D01*
Y27043D01*
X39310D01*
Y27050D01*
X39317D01*
Y27028D01*
D02*
G37*
G36*
X40041Y27183D02*
X40078D01*
Y27175D01*
X40100D01*
Y27168D01*
X40122D01*
Y27161D01*
X40144D01*
Y27153D01*
X40159D01*
Y27146D01*
X40166D01*
Y27139D01*
X40174D01*
Y26954D01*
X40166D01*
Y26961D01*
X40159D01*
Y26969D01*
X40144D01*
Y26976D01*
X40137D01*
Y26984D01*
X40129D01*
Y26991D01*
X40122D01*
Y26998D01*
X40107D01*
Y27006D01*
X40100D01*
Y27013D01*
X40085D01*
Y27020D01*
X40070D01*
Y27028D01*
X39996D01*
Y27020D01*
X39974D01*
Y27013D01*
X39959D01*
Y27006D01*
X39952D01*
Y26998D01*
X39945D01*
Y26991D01*
X39937D01*
Y26984D01*
X39930D01*
Y26969D01*
X39922D01*
Y26954D01*
X39915D01*
Y26939D01*
X39908D01*
Y26910D01*
X39900D01*
Y26843D01*
X39908D01*
Y26806D01*
X39915D01*
Y26799D01*
X39922D01*
Y26784D01*
X39930D01*
Y26769D01*
X39937D01*
Y26762D01*
X39945D01*
Y26755D01*
X39952D01*
Y26747D01*
X39959D01*
Y26740D01*
X39974D01*
Y26733D01*
X39982D01*
Y26725D01*
X40063D01*
Y26733D01*
X40078D01*
Y26740D01*
X40092D01*
Y26747D01*
X40107D01*
Y26755D01*
X40122D01*
Y26762D01*
X40129D01*
Y26769D01*
X40137D01*
Y26777D01*
X40144D01*
Y26784D01*
X40151D01*
Y26792D01*
X40166D01*
Y26799D01*
X40174D01*
Y26622D01*
X40166D01*
Y26614D01*
X40159D01*
Y26607D01*
X40144D01*
Y26600D01*
X40137D01*
Y26592D01*
X40122D01*
Y26585D01*
X40107D01*
Y26577D01*
X40085D01*
Y26570D01*
X40055D01*
Y26563D01*
X39952D01*
Y26570D01*
X39922D01*
Y26577D01*
X39900D01*
Y26585D01*
X39886D01*
Y26592D01*
X39878D01*
Y26600D01*
X39863D01*
Y26607D01*
X39849D01*
Y26622D01*
X39841D01*
Y26629D01*
X39834D01*
Y26637D01*
X39827D01*
Y26644D01*
X39819D01*
Y26651D01*
X39812D01*
Y26666D01*
X39804D01*
Y26673D01*
X39797D01*
Y26688D01*
X39790D01*
Y26710D01*
X39782D01*
Y26718D01*
X39775D01*
Y26740D01*
X39767D01*
Y26762D01*
X39760D01*
Y26806D01*
X39753D01*
Y26947D01*
X39760D01*
Y26991D01*
X39767D01*
Y27020D01*
X39775D01*
Y27035D01*
X39782D01*
Y27050D01*
X39790D01*
Y27065D01*
X39797D01*
Y27080D01*
X39804D01*
Y27087D01*
X39812D01*
Y27102D01*
X39819D01*
Y27109D01*
X39827D01*
Y27124D01*
X39834D01*
Y27131D01*
X39849D01*
Y27139D01*
X39856D01*
Y27146D01*
X39863D01*
Y27153D01*
X39871D01*
Y27161D01*
X39886D01*
Y27168D01*
X39900D01*
Y27175D01*
X39922D01*
Y27183D01*
X39959D01*
Y27190D01*
X40041D01*
Y27183D01*
D02*
G37*
G36*
X39258Y26910D02*
X39265D01*
Y26902D01*
X39258D01*
Y26910D01*
X39251D01*
Y26917D01*
X39258D01*
Y26910D01*
D02*
G37*
G36*
X38416Y27175D02*
X38446D01*
Y27168D01*
X38468D01*
Y27161D01*
X38475D01*
Y27153D01*
X38490D01*
Y27146D01*
X38498D01*
Y27139D01*
X38505D01*
Y27131D01*
X38512D01*
Y27116D01*
X38520D01*
Y27102D01*
X38527D01*
Y27080D01*
X38535D01*
Y26984D01*
X38527D01*
Y26969D01*
X38520D01*
Y26947D01*
X38512D01*
Y26932D01*
X38505D01*
Y26917D01*
X38498D01*
Y26910D01*
X38490D01*
Y26895D01*
X38505D01*
Y26888D01*
X38512D01*
Y26880D01*
X38520D01*
Y26873D01*
X38527D01*
Y26865D01*
X38535D01*
Y26851D01*
X38542D01*
Y26843D01*
X38549D01*
Y26821D01*
X38557D01*
Y26792D01*
X38564D01*
Y26703D01*
X38557D01*
Y26673D01*
X38549D01*
Y26651D01*
X38542D01*
Y26637D01*
X38535D01*
Y26622D01*
X38527D01*
Y26614D01*
X38520D01*
Y26607D01*
X38512D01*
Y26600D01*
X38505D01*
Y26592D01*
X38490D01*
Y26585D01*
X38475D01*
Y26577D01*
X38453D01*
Y26570D01*
X38165D01*
Y27183D01*
X38416D01*
Y27175D01*
D02*
G37*
G36*
X39000Y26563D02*
X38992D01*
Y26592D01*
X39000D01*
Y26563D01*
D02*
G37*
%LPC*%
G36*
X39413Y28600D02*
X39236D01*
Y28593D01*
X39206D01*
Y28586D01*
X39177D01*
Y28578D01*
X39155D01*
Y28571D01*
X39125D01*
Y28563D01*
X39110D01*
Y28556D01*
X39096D01*
Y28549D01*
X39081D01*
Y28541D01*
X39066D01*
Y28534D01*
X39051D01*
Y28527D01*
X39037D01*
Y28519D01*
X39029D01*
Y28512D01*
X39014D01*
Y28504D01*
X39007D01*
Y28497D01*
X38992D01*
Y28490D01*
X38985D01*
Y28482D01*
X38978D01*
Y28475D01*
X38970D01*
Y28467D01*
X38963D01*
Y28460D01*
X38955D01*
Y28453D01*
X38948D01*
Y28445D01*
X38941D01*
Y28438D01*
X38933D01*
Y28431D01*
X38926D01*
Y28423D01*
X38918D01*
Y28416D01*
X38911D01*
Y28408D01*
X38904D01*
Y28401D01*
X38896D01*
Y28394D01*
X38889D01*
Y28386D01*
Y28379D01*
X38874D01*
Y28371D01*
Y28364D01*
X38867D01*
Y28357D01*
Y28349D01*
X38859D01*
Y28342D01*
X38852D01*
Y28335D01*
Y28327D01*
X38845D01*
Y28320D01*
Y28312D01*
X38837D01*
Y28305D01*
Y28298D01*
X38830D01*
Y28290D01*
Y28283D01*
X38822D01*
Y28276D01*
Y28268D01*
X38815D01*
Y28261D01*
Y28253D01*
Y28246D01*
X38808D01*
Y28239D01*
Y28231D01*
X38800D01*
Y28224D01*
Y28216D01*
Y28209D01*
X38793D01*
Y28202D01*
Y28194D01*
Y28187D01*
Y28180D01*
Y28172D01*
X38786D01*
Y28165D01*
Y28157D01*
Y28150D01*
Y28143D01*
Y28135D01*
Y28128D01*
Y28120D01*
X38778D01*
Y28113D01*
Y28106D01*
Y28098D01*
Y28091D01*
Y28084D01*
Y28076D01*
Y28069D01*
Y28061D01*
Y28054D01*
Y28047D01*
Y28039D01*
Y28032D01*
Y28024D01*
Y28017D01*
Y28010D01*
Y28002D01*
Y27995D01*
Y27988D01*
X38786D01*
Y27980D01*
Y27973D01*
Y27965D01*
Y27958D01*
Y27951D01*
Y27943D01*
X38793D01*
Y27936D01*
Y27929D01*
Y27921D01*
Y27914D01*
Y27906D01*
X38800D01*
Y27899D01*
Y27892D01*
X38808D01*
Y27884D01*
Y27877D01*
Y27869D01*
X38815D01*
Y27862D01*
Y27855D01*
Y27847D01*
X38822D01*
Y27840D01*
Y27833D01*
Y27825D01*
X38830D01*
Y27818D01*
Y27810D01*
X38837D01*
Y27803D01*
X38845D01*
Y27796D01*
Y27788D01*
X38852D01*
Y27781D01*
Y27773D01*
X38859D01*
Y27766D01*
X38867D01*
Y27759D01*
Y27751D01*
X38874D01*
Y27744D01*
X38882D01*
Y27737D01*
Y27729D01*
X38889D01*
Y27722D01*
X38896D01*
Y27714D01*
X38904D01*
Y27707D01*
X38911D01*
Y27700D01*
Y27692D01*
X38918D01*
Y27685D01*
X38926D01*
Y27678D01*
X38933D01*
Y27670D01*
X38941D01*
Y27663D01*
X38948D01*
Y27655D01*
X38955D01*
Y27648D01*
X38970D01*
Y27641D01*
X38978D01*
Y27633D01*
X38985D01*
Y27626D01*
X38992D01*
Y27618D01*
X39007D01*
Y27611D01*
X39014D01*
Y27604D01*
X39022D01*
Y27596D01*
X39037D01*
Y27589D01*
X39051D01*
Y27582D01*
X39066D01*
Y27574D01*
X39081D01*
Y27567D01*
X39096D01*
Y27559D01*
X39103D01*
Y27567D01*
Y27574D01*
Y27582D01*
Y27589D01*
X39096D01*
Y27596D01*
Y27604D01*
X39088D01*
Y27611D01*
Y27618D01*
X39096D01*
Y27626D01*
X39103D01*
Y27633D01*
X39110D01*
Y27641D01*
X39118D01*
Y27648D01*
X39125D01*
Y27655D01*
X39133D01*
Y27663D01*
X39140D01*
Y27670D01*
X39155D01*
Y27663D01*
X39147D01*
Y27655D01*
X39140D01*
Y27648D01*
Y27641D01*
X39162D01*
Y27648D01*
Y27655D01*
Y27663D01*
Y27670D01*
Y27678D01*
Y27685D01*
X39140D01*
Y27678D01*
X39133D01*
Y27685D01*
X39125D01*
Y27692D01*
X39118D01*
Y27700D01*
X39133D01*
Y27707D01*
X39140D01*
Y27714D01*
X39155D01*
Y27722D01*
X39162D01*
Y27729D01*
X39184D01*
Y27737D01*
Y27744D01*
X39169D01*
Y27751D01*
X39155D01*
Y27759D01*
X39140D01*
Y27766D01*
X39133D01*
Y27773D01*
X39118D01*
Y27781D01*
X39110D01*
Y27788D01*
X39096D01*
Y27796D01*
X39088D01*
Y27803D01*
X39081D01*
Y27810D01*
X39073D01*
Y27818D01*
X39066D01*
Y27825D01*
X39059D01*
Y27833D01*
Y27840D01*
X39051D01*
Y27847D01*
X39044D01*
Y27855D01*
X39037D01*
Y27862D01*
Y27869D01*
X39029D01*
Y27877D01*
Y27884D01*
X39022D01*
Y27892D01*
X39014D01*
Y27899D01*
Y27906D01*
X39007D01*
Y27914D01*
Y27921D01*
Y27929D01*
X39000D01*
Y27936D01*
Y27943D01*
X38992D01*
Y27951D01*
Y27958D01*
Y27965D01*
Y27973D01*
X38985D01*
Y27980D01*
Y27988D01*
Y27995D01*
X38978D01*
Y28002D01*
X38985D01*
Y28010D01*
Y28017D01*
X38978D01*
Y28024D01*
Y28032D01*
Y28039D01*
Y28047D01*
Y28054D01*
Y28061D01*
Y28069D01*
Y28076D01*
Y28084D01*
Y28091D01*
Y28098D01*
X38985D01*
Y28091D01*
Y28084D01*
Y28076D01*
Y28069D01*
Y28061D01*
Y28054D01*
Y28047D01*
Y28039D01*
Y28032D01*
Y28024D01*
Y28017D01*
X38992D01*
Y28010D01*
Y28002D01*
Y27995D01*
Y27988D01*
X39000D01*
Y27980D01*
Y27973D01*
Y27965D01*
Y27958D01*
X39007D01*
Y27951D01*
Y27943D01*
Y27936D01*
X39014D01*
Y27929D01*
Y27921D01*
Y27914D01*
X39022D01*
Y27906D01*
Y27899D01*
X39029D01*
Y27892D01*
X39037D01*
Y27884D01*
Y27877D01*
X39044D01*
Y27869D01*
X39051D01*
Y27862D01*
Y27855D01*
X39059D01*
Y27847D01*
X39066D01*
Y27840D01*
X39073D01*
Y27833D01*
Y27825D01*
X39088D01*
Y27818D01*
X39096D01*
Y27810D01*
Y27803D01*
X39110D01*
Y27796D01*
X39118D01*
Y27788D01*
X39125D01*
Y27781D01*
X39140D01*
Y27773D01*
X39147D01*
Y27766D01*
X39162D01*
Y27759D01*
X39177D01*
Y27751D01*
X39192D01*
Y27744D01*
X39206D01*
Y27751D01*
X39221D01*
Y27744D01*
X39214D01*
Y27737D01*
X39199D01*
Y27729D01*
X39192D01*
Y27722D01*
X39169D01*
Y27714D01*
Y27707D01*
Y27700D01*
X39184D01*
Y27707D01*
X39206D01*
Y27714D01*
X39243D01*
Y27722D01*
X39265D01*
Y27729D01*
X39280D01*
Y27737D01*
Y27744D01*
X39324D01*
Y27751D01*
X39339D01*
Y27759D01*
X39354D01*
Y27766D01*
Y27773D01*
X39369D01*
Y27781D01*
Y27788D01*
Y27796D01*
X39361D01*
Y27803D01*
X39384D01*
Y27810D01*
Y27818D01*
Y27825D01*
Y27833D01*
Y27840D01*
Y27847D01*
X39376D01*
Y27855D01*
Y27862D01*
Y27869D01*
Y27877D01*
X39369D01*
Y27884D01*
Y27892D01*
Y27899D01*
Y27906D01*
X39361D01*
Y27914D01*
Y27921D01*
Y27929D01*
Y27936D01*
X39369D01*
Y27929D01*
Y27921D01*
Y27914D01*
Y27906D01*
X39376D01*
Y27899D01*
Y27892D01*
Y27884D01*
Y27877D01*
X39384D01*
Y27869D01*
Y27862D01*
Y27855D01*
Y27847D01*
X39391D01*
Y27840D01*
Y27833D01*
Y27825D01*
Y27818D01*
X39398D01*
Y27810D01*
Y27803D01*
Y27796D01*
Y27788D01*
X39406D01*
Y27781D01*
Y27773D01*
X39413D01*
Y27766D01*
X39406D01*
Y27759D01*
X39413D01*
Y27751D01*
Y27744D01*
X39406D01*
Y27751D01*
Y27759D01*
X39398D01*
Y27766D01*
X39376D01*
Y27759D01*
X39361D01*
Y27751D01*
X39354D01*
Y27744D01*
X39347D01*
Y27737D01*
Y27729D01*
X39354D01*
Y27722D01*
X39369D01*
Y27729D01*
X39376D01*
Y27737D01*
X39384D01*
Y27729D01*
Y27722D01*
Y27714D01*
Y27707D01*
X39406D01*
Y27700D01*
Y27692D01*
X39413D01*
Y27685D01*
Y27678D01*
X39420D01*
Y27670D01*
Y27663D01*
X39428D01*
Y27655D01*
Y27648D01*
X39435D01*
Y27641D01*
Y27633D01*
X39443D01*
Y27626D01*
X39450D01*
Y27618D01*
Y27611D01*
X39457D01*
Y27604D01*
Y27596D01*
X39465D01*
Y27589D01*
Y27582D01*
X39472D01*
Y27574D01*
Y27567D01*
X39480D01*
Y27559D01*
Y27552D01*
X39494D01*
Y27559D01*
Y27567D01*
X39487D01*
Y27574D01*
Y27582D01*
X39494D01*
Y27574D01*
Y27567D01*
X39502D01*
Y27559D01*
Y27552D01*
X39509D01*
Y27545D01*
X39524D01*
Y27552D01*
X39539D01*
Y27559D01*
X39553D01*
Y27567D01*
X39568D01*
Y27574D01*
X39583D01*
Y27582D01*
X39598D01*
Y27589D01*
X39605D01*
Y27596D01*
X39620D01*
Y27604D01*
X39627D01*
Y27611D01*
X39642D01*
Y27618D01*
X39649D01*
Y27626D01*
X39657D01*
Y27633D01*
X39671D01*
Y27641D01*
X39679D01*
Y27648D01*
X39686D01*
Y27655D01*
X39694D01*
Y27663D01*
X39701D01*
Y27670D01*
X39708D01*
Y27678D01*
X39716D01*
Y27685D01*
X39723D01*
Y27692D01*
X39731D01*
Y27700D01*
X39738D01*
Y27707D01*
X39745D01*
Y27714D01*
Y27722D01*
X39760D01*
Y27729D01*
Y27737D01*
X39767D01*
Y27744D01*
Y27751D01*
X39775D01*
Y27759D01*
X39782D01*
Y27766D01*
X39790D01*
Y27773D01*
Y27781D01*
X39797D01*
Y27788D01*
Y27796D01*
X39804D01*
Y27803D01*
Y27810D01*
X39812D01*
Y27818D01*
Y27825D01*
X39819D01*
Y27833D01*
Y27840D01*
Y27847D01*
X39827D01*
Y27855D01*
X39834D01*
Y27862D01*
Y27869D01*
Y27877D01*
X39841D01*
Y27884D01*
Y27892D01*
Y27899D01*
X39849D01*
Y27906D01*
Y27914D01*
Y27921D01*
Y27929D01*
Y27936D01*
X39856D01*
Y27943D01*
Y27951D01*
Y27958D01*
Y27965D01*
Y27973D01*
X39863D01*
Y27980D01*
Y27988D01*
Y27995D01*
Y28002D01*
Y28010D01*
X39871D01*
Y28017D01*
Y28024D01*
Y28032D01*
Y28039D01*
Y28047D01*
Y28054D01*
Y28061D01*
Y28069D01*
Y28076D01*
Y28084D01*
Y28091D01*
Y28098D01*
Y28106D01*
X39863D01*
Y28113D01*
Y28120D01*
Y28128D01*
Y28135D01*
Y28143D01*
X39856D01*
Y28150D01*
Y28157D01*
Y28165D01*
Y28172D01*
Y28180D01*
Y28187D01*
X39849D01*
Y28194D01*
Y28202D01*
Y28209D01*
Y28216D01*
X39841D01*
Y28224D01*
Y28231D01*
Y28239D01*
X39834D01*
Y28246D01*
Y28253D01*
X39827D01*
Y28261D01*
Y28268D01*
Y28276D01*
X39819D01*
Y28283D01*
Y28290D01*
X39812D01*
Y28298D01*
Y28305D01*
X39804D01*
Y28312D01*
Y28320D01*
X39797D01*
Y28327D01*
Y28335D01*
X39790D01*
Y28342D01*
Y28349D01*
X39782D01*
Y28357D01*
X39775D01*
Y28364D01*
Y28371D01*
X39760D01*
Y28379D01*
Y28386D01*
X39753D01*
Y28394D01*
Y28401D01*
X39745D01*
Y28408D01*
X39738D01*
Y28416D01*
X39731D01*
Y28423D01*
X39723D01*
Y28431D01*
X39716D01*
Y28438D01*
X39708D01*
Y28445D01*
X39701D01*
Y28453D01*
X39694D01*
Y28460D01*
X39686D01*
Y28467D01*
X39671D01*
Y28475D01*
Y28482D01*
X39664D01*
Y28490D01*
X39649D01*
Y28497D01*
X39642D01*
Y28504D01*
X39627D01*
Y28512D01*
X39620D01*
Y28519D01*
X39605D01*
Y28527D01*
X39590D01*
Y28534D01*
X39583D01*
Y28541D01*
X39568D01*
Y28549D01*
X39553D01*
Y28556D01*
X39531D01*
Y28563D01*
X39516D01*
Y28571D01*
X39494D01*
Y28578D01*
X39472D01*
Y28586D01*
X39435D01*
Y28593D01*
X39413D01*
Y28600D01*
D02*
G37*
G36*
X39347Y27700D02*
X39339D01*
Y27692D01*
X39317D01*
Y27685D01*
X39302D01*
Y27678D01*
Y27670D01*
X39324D01*
Y27678D01*
X39354D01*
Y27685D01*
Y27692D01*
X39347D01*
Y27700D01*
D02*
G37*
G36*
X39273Y27161D02*
X39169D01*
Y27153D01*
Y27146D01*
Y27139D01*
Y27131D01*
X39162D01*
Y27124D01*
Y27116D01*
Y27109D01*
Y27102D01*
X39155D01*
Y27094D01*
Y27087D01*
Y27080D01*
Y27072D01*
X39147D01*
Y27065D01*
Y27057D01*
Y27050D01*
Y27043D01*
X39140D01*
Y27035D01*
Y27028D01*
Y27020D01*
Y27013D01*
X39133D01*
Y27006D01*
Y26998D01*
Y26991D01*
Y26984D01*
Y26976D01*
X39125D01*
Y26969D01*
X39118D01*
Y26961D01*
Y26954D01*
Y26947D01*
Y26939D01*
X39110D01*
Y26932D01*
Y26924D01*
X39125D01*
Y26932D01*
X39140D01*
Y26939D01*
X39147D01*
Y26947D01*
X39155D01*
Y26954D01*
X39169D01*
Y26947D01*
Y26939D01*
X39162D01*
Y26932D01*
Y26924D01*
X39155D01*
Y26917D01*
X39140D01*
Y26910D01*
Y26902D01*
X39133D01*
Y26895D01*
X39125D01*
Y26902D01*
Y26910D01*
Y26917D01*
X39110D01*
Y26910D01*
X39103D01*
Y26902D01*
Y26895D01*
Y26888D01*
Y26880D01*
X39096D01*
Y26873D01*
Y26865D01*
Y26858D01*
Y26851D01*
Y26843D01*
Y26836D01*
X39088D01*
Y26828D01*
Y26821D01*
X39081D01*
Y26814D01*
Y26806D01*
X39073D01*
Y26814D01*
Y26821D01*
X39066D01*
Y26828D01*
Y26836D01*
Y26843D01*
Y26851D01*
X39059D01*
Y26858D01*
Y26865D01*
Y26873D01*
X39051D01*
Y26880D01*
Y26888D01*
Y26895D01*
Y26902D01*
X39037D01*
Y26895D01*
Y26888D01*
Y26880D01*
Y26873D01*
X39029D01*
Y26865D01*
Y26858D01*
Y26851D01*
Y26843D01*
Y26836D01*
Y26828D01*
Y26821D01*
Y26814D01*
Y26806D01*
Y26799D01*
X39022D01*
Y26792D01*
Y26784D01*
Y26777D01*
Y26769D01*
Y26762D01*
Y26755D01*
Y26747D01*
Y26740D01*
Y26733D01*
X39014D01*
Y26725D01*
Y26718D01*
Y26710D01*
Y26703D01*
Y26696D01*
X39022D01*
Y26688D01*
Y26681D01*
Y26673D01*
Y26666D01*
X39029D01*
Y26659D01*
Y26651D01*
Y26644D01*
X39037D01*
Y26637D01*
Y26629D01*
X39044D01*
Y26622D01*
Y26614D01*
Y26607D01*
Y26600D01*
X39051D01*
Y26592D01*
Y26585D01*
X39110D01*
Y26592D01*
Y26600D01*
Y26607D01*
Y26614D01*
X39118D01*
Y26622D01*
Y26629D01*
X39125D01*
Y26637D01*
X39118D01*
Y26644D01*
X39125D01*
Y26651D01*
Y26659D01*
X39133D01*
Y26666D01*
Y26673D01*
Y26681D01*
X39140D01*
Y26688D01*
Y26696D01*
Y26703D01*
Y26710D01*
X39147D01*
Y26718D01*
Y26725D01*
Y26733D01*
Y26740D01*
X39155D01*
Y26747D01*
Y26755D01*
Y26762D01*
X39162D01*
Y26769D01*
Y26777D01*
Y26784D01*
Y26792D01*
X39169D01*
Y26799D01*
Y26806D01*
X39177D01*
Y26814D01*
Y26821D01*
Y26828D01*
X39184D01*
Y26836D01*
Y26843D01*
Y26851D01*
Y26858D01*
X39192D01*
Y26865D01*
Y26873D01*
Y26880D01*
Y26888D01*
X39199D01*
Y26895D01*
Y26902D01*
Y26910D01*
X39206D01*
Y26917D01*
Y26924D01*
Y26932D01*
Y26939D01*
X39214D01*
Y26947D01*
Y26954D01*
Y26961D01*
Y26969D01*
Y26976D01*
Y26984D01*
X39199D01*
Y26976D01*
X39192D01*
Y26969D01*
X39184D01*
Y26961D01*
Y26954D01*
X39169D01*
Y26961D01*
Y26969D01*
X39177D01*
Y26976D01*
X39184D01*
Y26984D01*
X39192D01*
Y26991D01*
Y26998D01*
X39199D01*
Y27006D01*
Y27013D01*
Y27020D01*
Y27028D01*
X39206D01*
Y27035D01*
Y27043D01*
Y27050D01*
Y27057D01*
Y27065D01*
Y27072D01*
Y27080D01*
Y27087D01*
Y27094D01*
X39199D01*
Y27102D01*
Y27109D01*
X39214D01*
Y27102D01*
Y27094D01*
Y27087D01*
Y27080D01*
Y27072D01*
Y27065D01*
Y27057D01*
Y27050D01*
Y27043D01*
Y27035D01*
X39221D01*
Y27043D01*
X39229D01*
Y27050D01*
X39236D01*
Y27057D01*
X39243D01*
Y27065D01*
Y27072D01*
X39251D01*
Y27080D01*
Y27087D01*
X39258D01*
Y27094D01*
Y27102D01*
Y27109D01*
X39265D01*
Y27116D01*
Y27124D01*
X39273D01*
Y27131D01*
Y27139D01*
Y27146D01*
Y27153D01*
Y27161D01*
D02*
G37*
G36*
X39516Y27050D02*
X39480D01*
Y27043D01*
Y27035D01*
Y27028D01*
Y27020D01*
Y27013D01*
Y27006D01*
Y26998D01*
Y26991D01*
Y26984D01*
Y26976D01*
Y26969D01*
Y26961D01*
Y26954D01*
Y26947D01*
Y26939D01*
Y26932D01*
X39509D01*
Y26939D01*
Y26947D01*
Y26954D01*
Y26961D01*
Y26969D01*
Y26976D01*
Y26984D01*
Y26991D01*
X39502D01*
Y26998D01*
Y27006D01*
Y27013D01*
Y27020D01*
Y27028D01*
X39516D01*
Y27020D01*
Y27013D01*
Y27006D01*
Y26998D01*
Y26991D01*
Y26984D01*
Y26976D01*
Y26969D01*
Y26961D01*
Y26954D01*
Y26947D01*
Y26939D01*
Y26932D01*
X39546D01*
Y26939D01*
X39553D01*
Y26947D01*
X39561D01*
Y26954D01*
Y26961D01*
Y26969D01*
Y26976D01*
Y26984D01*
Y26991D01*
Y26998D01*
Y27006D01*
Y27013D01*
Y27020D01*
X39553D01*
Y27028D01*
X39546D01*
Y27035D01*
X39524D01*
Y27028D01*
X39516D01*
Y27035D01*
Y27043D01*
Y27050D01*
D02*
G37*
G36*
X39502Y27161D02*
X39354D01*
Y27153D01*
Y27146D01*
Y27139D01*
Y27131D01*
Y27124D01*
Y27116D01*
Y27109D01*
Y27102D01*
Y27094D01*
Y27087D01*
Y27080D01*
Y27072D01*
Y27065D01*
Y27057D01*
Y27050D01*
Y27043D01*
Y27035D01*
Y27028D01*
Y27020D01*
Y27013D01*
Y27006D01*
Y26998D01*
Y26991D01*
Y26984D01*
Y26976D01*
Y26969D01*
Y26961D01*
Y26954D01*
Y26947D01*
Y26939D01*
Y26932D01*
Y26924D01*
Y26917D01*
Y26910D01*
Y26902D01*
Y26895D01*
Y26888D01*
Y26880D01*
Y26873D01*
Y26865D01*
Y26858D01*
Y26851D01*
Y26843D01*
Y26836D01*
Y26828D01*
Y26821D01*
Y26814D01*
Y26806D01*
Y26799D01*
Y26792D01*
Y26784D01*
Y26777D01*
Y26769D01*
Y26762D01*
Y26755D01*
Y26747D01*
Y26740D01*
Y26733D01*
Y26725D01*
Y26718D01*
Y26710D01*
Y26703D01*
Y26696D01*
Y26688D01*
Y26681D01*
Y26673D01*
Y26666D01*
Y26659D01*
Y26651D01*
Y26644D01*
Y26637D01*
Y26629D01*
Y26622D01*
Y26614D01*
Y26607D01*
Y26600D01*
Y26592D01*
X39450D01*
Y26600D01*
X39457D01*
Y26607D01*
Y26614D01*
Y26622D01*
Y26629D01*
Y26637D01*
Y26644D01*
Y26651D01*
Y26659D01*
Y26666D01*
Y26673D01*
Y26681D01*
Y26688D01*
Y26696D01*
Y26703D01*
Y26710D01*
Y26718D01*
Y26725D01*
Y26733D01*
Y26740D01*
Y26747D01*
Y26755D01*
Y26762D01*
Y26769D01*
Y26777D01*
Y26784D01*
Y26792D01*
Y26799D01*
Y26806D01*
Y26814D01*
Y26821D01*
X39509D01*
Y26828D01*
Y26836D01*
Y26843D01*
Y26851D01*
Y26858D01*
Y26865D01*
Y26873D01*
Y26880D01*
Y26888D01*
Y26895D01*
Y26902D01*
X39450D01*
Y26910D01*
X39457D01*
Y26917D01*
Y26924D01*
Y26932D01*
Y26939D01*
Y26947D01*
Y26954D01*
Y26961D01*
Y26969D01*
Y26976D01*
Y26984D01*
Y26991D01*
Y26998D01*
Y27006D01*
Y27013D01*
Y27020D01*
Y27028D01*
Y27035D01*
Y27043D01*
Y27050D01*
Y27057D01*
Y27065D01*
X39450D01*
Y27072D01*
X39516D01*
Y27080D01*
Y27087D01*
X39509D01*
Y27094D01*
X39502D01*
Y27102D01*
X39494D01*
Y27109D01*
Y27116D01*
Y27124D01*
X39502D01*
Y27131D01*
Y27139D01*
Y27146D01*
Y27153D01*
Y27161D01*
D02*
G37*
%LPD*%
G36*
X39051Y28246D02*
X39044D01*
Y28231D01*
X39037D01*
Y28224D01*
X39029D01*
Y28216D01*
X39022D01*
Y28231D01*
X39029D01*
Y28246D01*
X39037D01*
Y28261D01*
X39051D01*
Y28246D01*
D02*
G37*
G36*
X39406Y28194D02*
X39413D01*
Y28187D01*
X39406D01*
Y28194D01*
X39398D01*
Y28202D01*
X39406D01*
Y28194D01*
D02*
G37*
G36*
X39022Y28202D02*
X39014D01*
Y28187D01*
X39007D01*
Y28209D01*
X39014D01*
Y28216D01*
X39022D01*
Y28202D01*
D02*
G37*
G36*
X39428Y28180D02*
X39435D01*
Y28172D01*
X39443D01*
Y28165D01*
X39450D01*
Y28157D01*
X39457D01*
Y28150D01*
X39450D01*
Y28157D01*
X39443D01*
Y28165D01*
X39435D01*
Y28172D01*
X39428D01*
Y28180D01*
X39420D01*
Y28187D01*
X39428D01*
Y28180D01*
D02*
G37*
G36*
X39177Y28106D02*
X39169D01*
Y28120D01*
X39177D01*
Y28106D01*
D02*
G37*
G36*
X39007Y28157D02*
X39000D01*
Y28128D01*
X38992D01*
Y28106D01*
X38985D01*
Y28113D01*
X38978D01*
Y28120D01*
X38985D01*
Y28135D01*
X38992D01*
Y28165D01*
X39000D01*
Y28187D01*
X39007D01*
Y28157D01*
D02*
G37*
G36*
X39169Y28091D02*
X39162D01*
Y28106D01*
X39169D01*
Y28091D01*
D02*
G37*
G36*
X39487Y28047D02*
X39480D01*
Y28069D01*
X39487D01*
Y28047D01*
D02*
G37*
G36*
X39302Y28017D02*
X39295D01*
Y28039D01*
X39302D01*
Y28017D01*
D02*
G37*
G36*
X39480Y28002D02*
X39472D01*
Y28017D01*
X39480D01*
Y28002D01*
D02*
G37*
G36*
X39295Y27988D02*
X39288D01*
Y28017D01*
X39295D01*
Y27988D01*
D02*
G37*
G36*
X39177D02*
X39184D01*
Y27980D01*
X39177D01*
Y27988D01*
X39169D01*
Y28010D01*
X39177D01*
Y27988D01*
D02*
G37*
G36*
X39288Y27965D02*
X39280D01*
Y27988D01*
X39288D01*
Y27965D01*
D02*
G37*
G36*
X39457Y27958D02*
X39450D01*
Y27973D01*
X39457D01*
Y27958D01*
D02*
G37*
G36*
X39324Y28076D02*
X39332D01*
Y28047D01*
X39339D01*
Y28017D01*
X39347D01*
Y27988D01*
X39354D01*
Y27958D01*
X39347D01*
Y27988D01*
X39339D01*
Y28017D01*
X39332D01*
Y28047D01*
X39324D01*
Y28061D01*
X39310D01*
Y28039D01*
X39302D01*
Y28069D01*
X39310D01*
Y28084D01*
X39317D01*
Y28113D01*
X39324D01*
Y28076D01*
D02*
G37*
G36*
X39192Y27965D02*
X39199D01*
Y27958D01*
X39192D01*
Y27965D01*
X39184D01*
Y27973D01*
X39192D01*
Y27965D01*
D02*
G37*
G36*
X39391Y28394D02*
X39420D01*
Y28386D01*
X39443D01*
Y28379D01*
X39457D01*
Y28371D01*
X39472D01*
Y28364D01*
X39487D01*
Y28357D01*
X39502D01*
Y28349D01*
X39516D01*
Y28342D01*
X39524D01*
Y28335D01*
X39531D01*
Y28327D01*
X39546D01*
Y28320D01*
X39553D01*
Y28312D01*
X39561D01*
Y28305D01*
X39568D01*
Y28298D01*
X39576D01*
Y28290D01*
X39583D01*
Y28283D01*
X39590D01*
Y28268D01*
X39598D01*
Y28261D01*
X39605D01*
Y28253D01*
X39612D01*
Y28239D01*
X39620D01*
Y28231D01*
X39627D01*
Y28216D01*
X39635D01*
Y28194D01*
X39642D01*
Y28180D01*
X39649D01*
Y28157D01*
X39657D01*
Y28128D01*
X39664D01*
Y28069D01*
X39671D01*
Y28039D01*
X39664D01*
Y27980D01*
X39657D01*
Y27951D01*
X39649D01*
Y27936D01*
X39642D01*
Y27958D01*
X39649D01*
Y28002D01*
X39657D01*
Y28113D01*
X39649D01*
Y28150D01*
X39642D01*
Y28172D01*
X39635D01*
Y28187D01*
X39627D01*
Y28202D01*
X39620D01*
Y28216D01*
X39612D01*
Y28231D01*
X39605D01*
Y28246D01*
X39598D01*
Y28253D01*
X39590D01*
Y28261D01*
X39583D01*
Y28268D01*
X39576D01*
Y28283D01*
X39568D01*
Y28290D01*
X39561D01*
Y28298D01*
X39553D01*
Y28305D01*
X39546D01*
Y28312D01*
X39531D01*
Y28320D01*
X39524D01*
Y28327D01*
X39516D01*
Y28335D01*
X39502D01*
Y28342D01*
X39494D01*
Y28349D01*
X39480D01*
Y28357D01*
X39465D01*
Y28364D01*
X39450D01*
Y28371D01*
X39428D01*
Y28379D01*
X39406D01*
Y28386D01*
X39361D01*
Y28394D01*
X39280D01*
Y28386D01*
X39243D01*
Y28379D01*
X39214D01*
Y28371D01*
X39199D01*
Y28364D01*
X39184D01*
Y28357D01*
X39169D01*
Y28349D01*
X39155D01*
Y28342D01*
X39140D01*
Y28335D01*
X39133D01*
Y28327D01*
X39118D01*
Y28320D01*
X39110D01*
Y28312D01*
X39103D01*
Y28305D01*
X39096D01*
Y28298D01*
X39088D01*
Y28290D01*
X39081D01*
Y28283D01*
X39073D01*
Y28276D01*
X39066D01*
Y28268D01*
X39059D01*
Y28261D01*
X39051D01*
Y28276D01*
X39059D01*
Y28283D01*
X39066D01*
Y28290D01*
X39073D01*
Y28305D01*
X39088D01*
Y28312D01*
X39096D01*
Y28320D01*
X39103D01*
Y28327D01*
X39110D01*
Y28335D01*
X39118D01*
Y28342D01*
X39133D01*
Y28349D01*
X39140D01*
Y28357D01*
X39155D01*
Y28364D01*
X39169D01*
Y28371D01*
X39184D01*
Y28379D01*
X39199D01*
Y28386D01*
X39221D01*
Y28394D01*
X39258D01*
Y28401D01*
X39391D01*
Y28394D01*
D02*
G37*
G36*
X39280Y27936D02*
X39273D01*
Y27958D01*
X39280D01*
Y27936D01*
D02*
G37*
G36*
X39273Y27906D02*
X39265D01*
Y27892D01*
X39258D01*
Y27906D01*
X39251D01*
Y27914D01*
X39236D01*
Y27921D01*
X39229D01*
Y27929D01*
X39221D01*
Y27936D01*
X39229D01*
Y27929D01*
X39236D01*
Y27921D01*
X39251D01*
Y27914D01*
X39265D01*
Y27936D01*
X39273D01*
Y27906D01*
D02*
G37*
G36*
X39642Y27914D02*
X39635D01*
Y27906D01*
X39627D01*
Y27929D01*
X39635D01*
Y27936D01*
X39642D01*
Y27914D01*
D02*
G37*
G36*
X39627Y27892D02*
X39620D01*
Y27906D01*
X39627D01*
Y27892D01*
D02*
G37*
G36*
X39258Y27869D02*
X39251D01*
Y27892D01*
X39258D01*
Y27869D01*
D02*
G37*
G36*
X39251Y27833D02*
X39243D01*
Y27810D01*
X39258D01*
Y27803D01*
X39236D01*
Y27788D01*
X39229D01*
Y27810D01*
X39236D01*
Y27840D01*
X39243D01*
Y27862D01*
X39251D01*
Y27833D01*
D02*
G37*
G36*
X39229Y27759D02*
X39221D01*
Y27781D01*
X39229D01*
Y27759D01*
D02*
G37*
G36*
X39620Y27877D02*
X39612D01*
Y27862D01*
X39605D01*
Y27855D01*
X39598D01*
Y27840D01*
X39590D01*
Y27833D01*
X39583D01*
Y27825D01*
X39576D01*
Y27818D01*
X39568D01*
Y27810D01*
X39561D01*
Y27803D01*
X39553D01*
Y27796D01*
X39546D01*
Y27788D01*
X39539D01*
Y27781D01*
X39524D01*
Y27773D01*
X39516D01*
Y27766D01*
X39502D01*
Y27759D01*
X39494D01*
Y27751D01*
X39480D01*
Y27744D01*
X39465D01*
Y27737D01*
X39443D01*
Y27729D01*
X39428D01*
Y27707D01*
X39435D01*
Y27692D01*
X39443D01*
Y27678D01*
X39450D01*
Y27670D01*
X39457D01*
Y27655D01*
X39465D01*
Y27641D01*
X39472D01*
Y27626D01*
X39480D01*
Y27611D01*
X39487D01*
Y27589D01*
X39480D01*
Y27611D01*
X39472D01*
Y27626D01*
X39465D01*
Y27641D01*
X39457D01*
Y27648D01*
X39450D01*
Y27663D01*
X39443D01*
Y27678D01*
X39435D01*
Y27685D01*
X39428D01*
Y27707D01*
X39420D01*
Y27722D01*
X39413D01*
Y27737D01*
X39428D01*
Y27744D01*
X39450D01*
Y27751D01*
X39465D01*
Y27759D01*
X39487D01*
Y27766D01*
X39494D01*
Y27773D01*
X39509D01*
Y27781D01*
X39516D01*
Y27788D01*
X39531D01*
Y27796D01*
X39539D01*
Y27803D01*
X39546D01*
Y27810D01*
X39553D01*
Y27818D01*
X39561D01*
Y27825D01*
X39568D01*
Y27833D01*
X39576D01*
Y27840D01*
X39583D01*
Y27855D01*
X39590D01*
Y27862D01*
X39598D01*
Y27869D01*
X39605D01*
Y27884D01*
X39612D01*
Y27892D01*
X39620D01*
Y27877D01*
D02*
G37*
G36*
X39236Y27131D02*
X39229D01*
Y27146D01*
X39236D01*
Y27131D01*
D02*
G37*
G36*
X39184Y27087D02*
X39177D01*
Y27094D01*
X39169D01*
Y27102D01*
X39177D01*
Y27109D01*
X39184D01*
Y27087D01*
D02*
G37*
G36*
X39162Y26888D02*
X39169D01*
Y26873D01*
X39155D01*
Y26895D01*
X39162D01*
Y26888D01*
D02*
G37*
G36*
X39391Y27028D02*
X39384D01*
Y27065D01*
X39391D01*
Y27028D01*
D02*
G37*
%LPC*%
G36*
X38335Y27065D02*
X38320D01*
Y27057D01*
X38313D01*
Y27050D01*
Y27043D01*
Y27035D01*
Y27028D01*
Y27020D01*
Y27013D01*
Y27006D01*
Y26998D01*
Y26991D01*
Y26984D01*
Y26976D01*
Y26969D01*
Y26961D01*
Y26954D01*
Y26947D01*
X38320D01*
Y26939D01*
X38343D01*
Y26947D01*
X38372D01*
Y26954D01*
X38387D01*
Y26961D01*
X38394D01*
Y26969D01*
Y26976D01*
Y26984D01*
Y26991D01*
Y26998D01*
Y27006D01*
Y27013D01*
Y27020D01*
Y27028D01*
Y27035D01*
Y27043D01*
X38380D01*
Y27050D01*
X38372D01*
Y27057D01*
X38335D01*
Y27065D01*
D02*
G37*
G36*
X38380Y26821D02*
X38313D01*
Y26814D01*
Y26806D01*
Y26799D01*
Y26792D01*
Y26784D01*
Y26777D01*
Y26769D01*
Y26762D01*
Y26755D01*
Y26747D01*
Y26740D01*
Y26733D01*
Y26725D01*
Y26718D01*
Y26710D01*
Y26703D01*
Y26696D01*
X38387D01*
Y26703D01*
X38394D01*
Y26710D01*
X38409D01*
Y26718D01*
Y26725D01*
X38416D01*
Y26733D01*
Y26740D01*
Y26747D01*
Y26755D01*
Y26762D01*
Y26769D01*
Y26777D01*
Y26784D01*
X38409D01*
Y26792D01*
Y26799D01*
X38402D01*
Y26806D01*
X38394D01*
Y26814D01*
X38380D01*
Y26821D01*
D02*
G37*
%LPD*%
D10*
X38557Y30050D02*
G03*
X38557Y30050I-1557J0D01*
G01*
X34007D02*
G03*
X34007Y30050I-1557J0D01*
G01*
X29507D02*
G03*
X29507Y30050I-1557J0D01*
G01*
X34507Y39400D02*
G03*
X34507Y39400I-1557J0D01*
G01*
X33557Y34400D02*
G03*
X33557Y34400I-1557J0D01*
G01*
X35125Y41975D02*
X35200Y42050D01*
X33975Y41975D02*
X35125D01*
X40850Y26900D02*
Y26600D01*
Y26750D01*
X41050D01*
Y26900D01*
Y26600D01*
X41200Y26800D02*
X41300D01*
X41350Y26750D01*
Y26600D01*
X41200D01*
X41150Y26650D01*
X41200Y26700D01*
X41350D01*
X41450Y26600D02*
Y26800D01*
X41600D01*
X41650Y26750D01*
Y26600D01*
X41950Y26900D02*
Y26600D01*
X41800D01*
X41750Y26650D01*
Y26750D01*
X41800Y26800D01*
X41950D01*
X42050Y26900D02*
Y26600D01*
X42200D01*
X42250Y26650D01*
Y26700D01*
X42200Y26750D01*
X42050D01*
X42200D01*
X42250Y26800D01*
Y26850D01*
X42200Y26900D01*
X42050D01*
X42400Y26600D02*
X42499D01*
X42549Y26650D01*
Y26750D01*
X42499Y26800D01*
X42400D01*
X42350Y26750D01*
Y26650D01*
X42400Y26600D01*
X42699Y26800D02*
X42799D01*
X42849Y26750D01*
Y26600D01*
X42699D01*
X42649Y26650D01*
X42699Y26700D01*
X42849D01*
X42949Y26800D02*
Y26600D01*
Y26700D01*
X42999Y26750D01*
X43049Y26800D01*
X43099D01*
X43449Y26900D02*
Y26600D01*
X43299D01*
X43249Y26650D01*
Y26750D01*
X43299Y26800D01*
X43449D01*
X44049Y26600D02*
X43849D01*
X44049Y26800D01*
Y26850D01*
X43999Y26900D01*
X43899D01*
X43849Y26850D01*
X44149D02*
X44199Y26900D01*
X44299D01*
X44349Y26850D01*
Y26650D01*
X44299Y26600D01*
X44199D01*
X44149Y26650D01*
Y26850D01*
X44449Y26600D02*
X44549D01*
X44499D01*
Y26900D01*
X44449Y26850D01*
X44699D02*
X44749Y26900D01*
X44849D01*
X44899Y26850D01*
Y26800D01*
X44849Y26750D01*
X44899Y26700D01*
Y26650D01*
X44849Y26600D01*
X44749D01*
X44699Y26650D01*
Y26700D01*
X44749Y26750D01*
X44699Y26800D01*
Y26850D01*
X44749Y26750D02*
X44849D01*
X44650Y28750D02*
Y28850D01*
X44600Y28900D01*
X44400D01*
X44350Y28850D01*
Y28750D01*
X44400Y28700D01*
X44600D01*
X44650Y28750D01*
Y28600D02*
X44400D01*
X44350Y28550D01*
Y28450D01*
X44400Y28400D01*
X44650D01*
Y28300D02*
Y28100D01*
Y28200D01*
X44350D01*
X44500Y28000D02*
Y27800D01*
X44600Y27900D02*
X44400D01*
X44650Y31850D02*
Y31750D01*
Y31800D01*
X44350D01*
Y31850D01*
Y31750D01*
Y31600D02*
X44650D01*
X44350Y31400D01*
X44650D01*
X44500Y31300D02*
Y31100D01*
X44600Y31200D02*
X44400D01*
X45650Y28800D02*
Y28900D01*
X45600Y28950D01*
X45400D01*
X45350Y28900D01*
Y28800D01*
X45400Y28750D01*
X45600D01*
X45650Y28800D01*
Y28650D02*
X45400D01*
X45350Y28600D01*
Y28500D01*
X45400Y28450D01*
X45650D01*
Y28350D02*
Y28150D01*
Y28250D01*
X45350D01*
X45500Y28050D02*
Y27850D01*
X45700Y31850D02*
Y31750D01*
Y31800D01*
X45400D01*
Y31850D01*
Y31750D01*
Y31600D02*
X45700D01*
X45400Y31400D01*
X45700D01*
X45550Y31300D02*
Y31100D01*
X31100Y41650D02*
X31300D01*
X31200D01*
Y41350D01*
X31400Y41650D02*
Y41350D01*
Y41500D01*
X31600D01*
Y41650D01*
Y41350D01*
X31700Y41300D02*
X31900D01*
X32000Y41350D02*
Y41650D01*
X32100Y41550D01*
X32200Y41650D01*
Y41350D01*
X35450Y42200D02*
X35550D01*
X35500D01*
Y41900D01*
X35450D01*
X35550D01*
X35700D02*
Y42200D01*
X35900Y41900D01*
Y42200D01*
X36000Y41850D02*
X36200D01*
X36300Y41900D02*
Y42200D01*
X36400Y42100D01*
X36500Y42200D01*
Y41900D01*
X35400Y41500D02*
X35300D01*
X35250Y41450D01*
Y41250D01*
X35300Y41200D01*
X35400D01*
X35450Y41250D01*
Y41450D01*
X35400Y41500D01*
X35550D02*
X35750D01*
X35650D01*
Y41200D01*
X35850Y41150D02*
X36050D01*
X36150Y41200D02*
Y41500D01*
X36250Y41400D01*
X36350Y41500D01*
Y41200D01*
X41900Y31950D02*
X41700D01*
X41600Y31850D01*
X41700Y31750D01*
X41900D01*
Y31650D02*
Y31550D01*
Y31600D01*
X41600D01*
Y31650D01*
Y31550D01*
Y31400D02*
X41900D01*
X41600Y31200D01*
X41900D01*
Y35000D02*
X41600D01*
Y34850D01*
X41650Y34800D01*
X41700D01*
X41750Y34850D01*
Y35000D01*
Y34850D01*
X41800Y34800D01*
X41850D01*
X41900Y34850D01*
Y35000D01*
X41600Y34700D02*
Y34600D01*
Y34650D01*
X41900D01*
X41850Y34700D01*
X41600Y34250D02*
Y34450D01*
X41800Y34250D01*
X41850D01*
X41900Y34300D01*
Y34400D01*
X41850Y34450D01*
X41900Y35950D02*
X41600D01*
Y35800D01*
X41650Y35750D01*
X41700D01*
X41750Y35800D01*
Y35950D01*
Y35800D01*
X41800Y35750D01*
X41850D01*
X41900Y35800D01*
Y35950D01*
X41600Y35650D02*
Y35550D01*
Y35600D01*
X41900D01*
X41850Y35650D01*
X41600Y35400D02*
Y35300D01*
Y35350D01*
X41900D01*
X41850Y35400D01*
X41900Y36900D02*
X41600D01*
Y36750D01*
X41650Y36700D01*
X41700D01*
X41750Y36750D01*
Y36900D01*
Y36750D01*
X41800Y36700D01*
X41850D01*
X41900Y36750D01*
Y36900D01*
X41600Y36600D02*
Y36500D01*
Y36550D01*
X41900D01*
X41850Y36600D01*
Y36350D02*
X41900Y36300D01*
Y36200D01*
X41850Y36150D01*
X41650D01*
X41600Y36200D01*
Y36300D01*
X41650Y36350D01*
X41850D01*
X41900Y37800D02*
X41600D01*
Y37650D01*
X41650Y37600D01*
X41700D01*
X41750Y37650D01*
Y37800D01*
Y37650D01*
X41800Y37600D01*
X41850D01*
X41900Y37650D01*
Y37800D01*
X41850Y37500D02*
X41900Y37450D01*
Y37350D01*
X41850Y37300D01*
X41650D01*
X41600Y37350D01*
Y37450D01*
X41650Y37500D01*
X41850D01*
X41900Y38850D02*
Y38650D01*
Y38750D01*
X41600D01*
X41900Y38550D02*
X41600D01*
X41750D01*
Y38350D01*
X41900D01*
X41600D01*
X41900Y39800D02*
Y39700D01*
Y39750D01*
X41600D01*
Y39800D01*
Y39700D01*
Y39550D02*
X41900D01*
X41600Y39350D01*
X41900D01*
Y40650D02*
Y40750D01*
X41850Y40800D01*
X41650D01*
X41600Y40750D01*
Y40650D01*
X41650Y40600D01*
X41850D01*
X41900Y40650D01*
Y40500D02*
Y40300D01*
Y40400D01*
X41600D01*
X48450Y35850D02*
X48150D01*
X48250Y35750D01*
X48150Y35650D01*
X48450D01*
X48150Y35550D02*
X48450D01*
Y35400D01*
X48400Y35350D01*
X48300D01*
X48250Y35400D01*
Y35550D01*
X48450Y34850D02*
X48150D01*
X48250Y34750D01*
X48150Y34650D01*
X48450D01*
Y34550D02*
Y34350D01*
Y34450D01*
X48150D01*
X48400Y30750D02*
X48450Y30800D01*
Y30900D01*
X48400Y30950D01*
X48200D01*
X48150Y30900D01*
Y30800D01*
X48200Y30750D01*
X48300D01*
Y30850D01*
X48150Y30650D02*
X48450D01*
X48150Y30450D01*
X48450D01*
Y30350D02*
X48150D01*
Y30200D01*
X48200Y30150D01*
X48400D01*
X48450Y30200D01*
Y30350D01*
X48400Y42750D02*
X48450Y42800D01*
Y42900D01*
X48400Y42950D01*
X48200D01*
X48150Y42900D01*
Y42800D01*
X48200Y42750D01*
X48300D01*
Y42850D01*
X48150Y42650D02*
X48450D01*
X48150Y42450D01*
X48450D01*
Y42350D02*
X48150D01*
Y42200D01*
X48200Y42150D01*
X48400D01*
X48450Y42200D01*
Y42350D01*
X48150Y27950D02*
X48450D01*
Y27800D01*
X48400Y27750D01*
X48300D01*
X48250Y27800D01*
Y27950D01*
Y27850D02*
X48150Y27750D01*
X48400Y27450D02*
X48450Y27500D01*
Y27600D01*
X48400Y27650D01*
X48350D01*
X48300Y27600D01*
Y27500D01*
X48250Y27450D01*
X48200D01*
X48150Y27500D01*
Y27600D01*
X48200Y27650D01*
X48450Y27350D02*
Y27150D01*
Y27250D01*
X48150D01*
M02*
