G04*
G04 #@! TF.GenerationSoftware,Altium Limited,Altium Designer,18.0.12 (696)*
G04*
G04 Layer_Color=2752767*
%FSLAX24Y24*%
%MOIN*%
G70*
G01*
G75*
%ADD10C,0.0100*%
%ADD18C,0.0020*%
%ADD19C,0.0027*%
D10*
X30000Y27950D02*
X30050Y27900D01*
D18*
X45420Y30420D02*
Y30580D01*
X45580D01*
Y30420D01*
X45420D01*
Y29420D02*
Y29580D01*
X45580D01*
Y29420D01*
X45420D01*
X44420Y30420D02*
Y30580D01*
X44580D01*
Y30420D01*
X44420D01*
Y29420D02*
Y29580D01*
X44580D01*
Y29420D01*
X44420D01*
X45470Y34520D02*
Y34680D01*
X45630D01*
Y34520D01*
X45470D01*
Y35520D02*
Y35680D01*
X45630D01*
Y35520D01*
X45470D01*
X44470Y34520D02*
Y34680D01*
X44630D01*
Y34520D01*
X44470D01*
Y35520D02*
Y35680D01*
X44630D01*
Y35520D01*
X44470D01*
X33700Y26420D02*
X33620Y26580D01*
X33780D01*
X33700Y26420D01*
Y24020D02*
X33620Y24180D01*
X33780D01*
X33700Y24020D01*
X33870Y39370D02*
Y39530D01*
X34030D01*
Y39370D01*
X33870D01*
X31870D02*
Y39530D01*
X32030D01*
Y39370D01*
X31870D01*
X32870Y34320D02*
Y34480D01*
X33030D01*
Y34320D01*
X32870D01*
X31920D02*
Y34480D01*
X32080D01*
Y34320D01*
X31920D01*
X32620Y43420D02*
Y43580D01*
X32780D01*
Y43420D01*
X32620D01*
X33620D02*
Y43580D01*
X33780D01*
Y43420D01*
X33620D01*
X34620D02*
Y43580D01*
X34780D01*
Y43420D01*
X34620D01*
Y42420D02*
Y42580D01*
X34780D01*
Y42420D01*
X34620D01*
X33620D02*
Y42580D01*
X33780D01*
Y42420D01*
X33620D01*
X32620D02*
Y42580D01*
X32780D01*
Y42420D01*
X32620D01*
X37920Y29870D02*
Y30030D01*
X38080D01*
Y29870D01*
X37920D01*
X35920D02*
Y30030D01*
X36080D01*
Y29870D01*
X35920D01*
X33420D02*
Y30030D01*
X33580D01*
Y29870D01*
X33420D01*
X31420D02*
Y30030D01*
X31580D01*
Y29870D01*
X31420D01*
X28920D02*
Y30030D01*
X29080D01*
Y29870D01*
X28920D01*
X26920D02*
Y30030D01*
X27080D01*
Y29870D01*
X26920D01*
X40920Y31520D02*
Y31680D01*
X41080D01*
Y31520D01*
X40920D01*
Y32520D02*
Y32680D01*
X41080D01*
Y32520D01*
X40920D01*
Y33520D02*
Y33680D01*
X41080D01*
Y33520D01*
X40920D01*
Y34520D02*
Y34680D01*
X41080D01*
Y34520D01*
X40920D01*
Y35520D02*
Y35680D01*
X41080D01*
Y35520D01*
X40920D01*
Y36520D02*
Y36680D01*
X41080D01*
Y36520D01*
X40920D01*
Y37520D02*
Y37680D01*
X41080D01*
Y37520D01*
X40920D01*
Y38520D02*
Y38680D01*
X41080D01*
Y38520D01*
X40920D01*
Y39520D02*
Y39680D01*
X41080D01*
Y39520D01*
X40920D01*
Y40520D02*
Y40680D01*
X41080D01*
Y40520D01*
X40920D01*
Y41520D02*
Y41680D01*
X41080D01*
Y41520D01*
X40920D01*
X48920Y42520D02*
Y42680D01*
X49080D01*
Y42520D01*
X48920D01*
Y41520D02*
Y41680D01*
X49080D01*
Y41520D01*
X48920D01*
Y40520D02*
Y40680D01*
X49080D01*
Y40520D01*
X48920D01*
Y39520D02*
Y39680D01*
X49080D01*
Y39520D01*
X48920D01*
Y38520D02*
Y38680D01*
X49080D01*
Y38520D01*
X48920D01*
Y37520D02*
Y37680D01*
X49080D01*
Y37520D01*
X48920D01*
Y36520D02*
Y36680D01*
X49080D01*
Y36520D01*
X48920D01*
Y35520D02*
Y35680D01*
X49080D01*
Y35520D01*
X48920D01*
Y34520D02*
Y34680D01*
X49080D01*
Y34520D01*
X48920D01*
Y33520D02*
Y33680D01*
X49080D01*
Y33520D01*
X48920D01*
Y32520D02*
Y32680D01*
X49080D01*
Y32520D01*
X48920D01*
Y31520D02*
Y31680D01*
X49080D01*
Y31520D01*
X48920D01*
Y30520D02*
Y30680D01*
X49080D01*
Y30520D01*
X48920D01*
Y29520D02*
Y29680D01*
X49080D01*
Y29520D01*
X48920D01*
Y28520D02*
Y28680D01*
X49080D01*
Y28520D01*
X48920D01*
Y27520D02*
Y27680D01*
X49080D01*
Y27520D01*
X48920D01*
D19*
X46630Y34600D02*
G03*
X46630Y34600I-80J0D01*
G01*
Y35600D02*
G03*
X46630Y35600I-80J0D01*
G01*
X31080Y34400D02*
G03*
X31080Y34400I-80J0D01*
G01*
X34780Y41500D02*
G03*
X34780Y41500I-80J0D01*
G01*
X33780D02*
G03*
X33780Y41500I-80J0D01*
G01*
X32780D02*
G03*
X32780Y41500I-80J0D01*
G01*
M02*
