M48
;Layer_Color=9474304
;FILE_FORMAT=2:4
INCH,LZ
;TYPE=PLATED
T1F00S00C0.0300
%
T01
X049Y0276
Y0286
Y0296
Y0306
X0455Y0305
Y0295
X0445
Y0305
X038Y02995
X036
X0335
X0315
X029
X027
X032Y0344
X03295
X03395Y03945
X03195
X0327Y0425
Y0435
X0337
X0347
Y0425
X0337
X041Y0416
Y0406
Y0396
Y0386
Y0376
Y0366
Y0356
Y0346
Y0336
Y0326
Y0316
X04455Y0346
X04555
Y0356
X04455
X049
Y0366
Y0376
Y0386
Y0396
Y0406
Y0416
Y0426
Y0346
Y0336
Y0326
Y0316
M30
