G04*
G04 #@! TF.GenerationSoftware,Altium Limited,Altium Designer,18.0.12 (696)*
G04*
G04 Layer_Color=8388736*
%FSLAX24Y24*%
%MOIN*%
G70*
G01*
G75*
%ADD11C,0.0680*%
%ADD12R,0.0680X0.0680*%
%ADD13R,0.1880X0.0980*%
D11*
X45500Y30500D02*
D03*
Y29500D02*
D03*
X44500Y30500D02*
D03*
Y29500D02*
D03*
X45550Y34600D02*
D03*
Y35600D02*
D03*
X44550Y34600D02*
D03*
Y35600D02*
D03*
X33950Y39450D02*
D03*
X31950D02*
D03*
X32950Y34400D02*
D03*
X32000D02*
D03*
X32700Y43500D02*
D03*
X33700D02*
D03*
X34700D02*
D03*
Y42500D02*
D03*
X33700D02*
D03*
X32700D02*
D03*
X38000Y29950D02*
D03*
X36000D02*
D03*
X33500D02*
D03*
X31500D02*
D03*
X29000D02*
D03*
X27000D02*
D03*
X41000Y31600D02*
D03*
Y32600D02*
D03*
Y33600D02*
D03*
Y34600D02*
D03*
Y35600D02*
D03*
Y36600D02*
D03*
Y37600D02*
D03*
Y38600D02*
D03*
Y39600D02*
D03*
Y40600D02*
D03*
Y41600D02*
D03*
X49000Y42600D02*
D03*
Y41600D02*
D03*
Y40600D02*
D03*
Y39600D02*
D03*
Y38600D02*
D03*
Y37600D02*
D03*
Y36600D02*
D03*
Y35600D02*
D03*
Y34600D02*
D03*
Y33600D02*
D03*
Y32600D02*
D03*
Y31600D02*
D03*
Y30600D02*
D03*
Y29600D02*
D03*
Y28600D02*
D03*
Y27600D02*
D03*
D12*
X46550Y34600D02*
D03*
Y35600D02*
D03*
X31000Y34400D02*
D03*
X34700Y41500D02*
D03*
X33700D02*
D03*
X32700D02*
D03*
D13*
X33700Y26500D02*
D03*
Y24100D02*
D03*
M02*
